<svg width="2048" height="2048" viewBox="0 0 2048 2048" fill="none" xmlns="http://www.w3.org/2000/svg">
<path fill-rule="evenodd" clip-rule="evenodd" d="M1858.8 1190.08L1772.44 1173C1781.96 1124.88 1786.97 1075.07 1786.97 1024C1786.97 972.932 1781.96 923.121 1772.44 875.002L1858.8 857.917C1869.43 911.633 1875 967.166 1875 1024C1875 1080.83 1869.43 1136.37 1858.8 1190.08ZM1731.66 551.171L1658.51 600.146C1602.78 516.906 1531.09 445.22 1447.85 389.492L1496.83 316.338C1589.63 378.468 1669.53 458.368 1731.66 551.171ZM1190.08 189.198L1173 275.559C1124.88 266.039 1075.07 261.034 1024 261.034C972.932 261.034 923.121 266.039 875.002 275.559L857.917 189.198C911.633 178.571 967.166 173 1024 173C1080.83 173 1136.37 178.571 1190.08 189.198ZM551.171 316.338L600.146 389.492C516.906 445.22 445.22 516.906 389.492 600.146L316.338 551.171C378.468 458.368 458.368 378.468 551.171 316.338ZM189.198 857.917C178.571 911.633 173 967.166 173 1024C173 1080.83 178.571 1136.37 189.198 1190.08L275.559 1173C266.039 1124.88 261.034 1075.07 261.034 1024C261.034 972.932 266.039 923.121 275.559 875.002L189.198 857.917ZM316.338 1496.83L389.492 1447.85C445.22 1531.09 516.906 1602.78 600.146 1658.51L551.171 1731.66C458.368 1669.53 378.468 1589.63 316.338 1496.83ZM857.917 1858.8L875.002 1772.44C923.121 1781.96 972.932 1786.97 1024 1786.97C1075.07 1786.97 1124.88 1781.96 1173 1772.44L1190.08 1858.8C1136.37 1869.43 1080.83 1875 1024 1875C967.166 1875 911.633 1869.43 857.917 1858.8ZM1496.83 1731.66L1447.85 1658.51C1531.09 1602.78 1602.78 1531.09 1658.51 1447.85L1731.66 1496.83C1669.53 1589.63 1589.63 1669.53 1496.83 1731.66Z" fill="#F3B235"/>
<path fill-rule="evenodd" clip-rule="evenodd" d="M1024 1646.11C1367.58 1646.11 1646.11 1367.58 1646.11 1024C1646.11 680.418 1367.58 401.89 1024 401.89C680.418 401.89 401.89 680.418 401.89 1024C401.89 1367.58 680.418 1646.11 1024 1646.11ZM1024 1792.83C1448.62 1792.83 1792.83 1448.62 1792.83 1024C1792.83 599.384 1448.62 255.166 1024 255.166C599.384 255.166 255.166 599.384 255.166 1024C255.166 1448.62 599.384 1792.83 1024 1792.83Z" fill="#F3B235"/>
</svg>
