<svg width="2048" height="2048" viewBox="0 0 2048 2048" fill="none" xmlns="http://www.w3.org/2000/svg">
<path fill-rule="evenodd" clip-rule="evenodd" d="M1788.25 1340.57L1459.68 1204.31C1482.52 1149.24 1495.3 1088.56 1495.3 1024C1495.3 959.44 1482.52 898.763 1459.68 843.686L1788.25 707.434C1828.68 804.944 1851 911.866 1851 1024C1851 1136.13 1828.68 1243.06 1788.25 1340.57ZM1340.57 259.753L1204.31 588.322C1149.24 565.482 1088.56 552.699 1024 552.699C959.44 552.699 898.763 565.482 843.686 588.322L707.434 259.753C804.944 219.318 911.866 197 1024 197C1136.13 197 1243.06 219.318 1340.57 259.753ZM259.753 707.434C219.318 804.944 197 911.866 197 1024C197 1136.13 219.318 1243.06 259.753 1340.57L588.322 1204.31C565.482 1149.24 552.699 1088.56 552.699 1024C552.699 959.44 565.482 898.763 588.322 843.686L259.753 707.434ZM707.434 1788.25L843.686 1459.68C898.763 1482.52 959.44 1495.3 1024 1495.3C1088.56 1495.3 1149.24 1482.52 1204.31 1459.68L1340.57 1788.25C1243.06 1828.68 1136.13 1851 1024 1851C911.866 1851 804.944 1828.68 707.434 1788.25Z" fill="#F3B235"/>
<path fill-rule="evenodd" clip-rule="evenodd" d="M1024 1784.31C1443.91 1784.31 1784.31 1443.91 1784.31 1024C1784.31 604.094 1443.91 263.694 1024 263.694C604.094 263.694 263.694 604.094 263.694 1024C263.694 1443.91 604.094 1784.31 1024 1784.31ZM1024 1851C1480.74 1851 1851 1480.74 1851 1024C1851 567.261 1480.74 197 1024 197C567.261 197 197 567.261 197 1024C197 1480.74 567.261 1851 1024 1851Z" fill="#F3B235"/>
<path fill-rule="evenodd" clip-rule="evenodd" d="M1024 1433.05C1249.91 1433.05 1433.05 1249.91 1433.05 1024C1433.05 798.086 1249.91 614.946 1024 614.946C798.086 614.946 614.946 798.086 614.946 1024C614.946 1249.91 798.086 1433.05 1024 1433.05ZM1024 1499.75C1286.75 1499.75 1499.75 1286.75 1499.75 1024C1499.75 761.252 1286.75 548.253 1024 548.253C761.252 548.253 548.253 761.252 548.253 1024C548.253 1286.75 761.252 1499.75 1024 1499.75Z" fill="#F3B235"/>
</svg>
