<svg width="2048" height="2048" viewBox="0 0 2048 2048" fill="none" xmlns="http://www.w3.org/2000/svg">
<path fill-rule="evenodd" clip-rule="evenodd" d="M1024.37 1530.35L755.975 1798.75L638.67 1681.44L1024.37 1295.74L1410.08 1681.44L1292.77 1798.75L1024.37 1530.35Z" fill="#F3B235"/>
<path fill-rule="evenodd" clip-rule="evenodd" d="M1024.38 518.398L1292.78 250L1410.08 367.306L1024.38 753.01L638.676 367.306L755.981 250L1024.38 518.398Z" fill="#F3B235"/>
<path fill-rule="evenodd" clip-rule="evenodd" d="M518.398 1024.36L250 755.966L367.306 638.66L753.01 1024.36L367.306 1410.07L250 1292.76L518.398 1024.36Z" fill="#F3B235"/>
<path fill-rule="evenodd" clip-rule="evenodd" d="M1530.36 1024.38L1798.75 1292.77L1681.45 1410.08L1295.74 1024.38L1681.45 638.671L1798.75 755.977L1530.36 1024.38Z" fill="#F3B235"/>
<path d="M456.259 1495.28L617.827 1333.71L715.024 1430.91L553.455 1592.48L456.259 1495.28Z" fill="#F3B235"/>
<path d="M1336.69 614.834L1498.59 452.929L1595.79 550.125L1433.89 712.03L1336.69 614.834Z" fill="#F3B235"/>
<path d="M553.463 452.924L716.364 615.824L619.167 713.02L456.267 550.12L553.463 452.924Z" fill="#F3B235"/>
<path d="M1432.27 1331.7L1595.84 1495.27L1498.64 1592.47L1335.07 1428.89L1432.27 1331.7Z" fill="#F3B235"/>
</svg>
