<svg width="2048" height="2048" viewBox="0 0 2048 2048" fill="none" xmlns="http://www.w3.org/2000/svg">
<path fill-rule="evenodd" clip-rule="evenodd" d="M1132.88 268.528C1084.71 185.158 964.29 185.157 916.121 268.527L152.953 1589.42C104.785 1672.79 164.995 1777 261.332 1777H1787.67C1884 1777 1944.22 1672.79 1896.05 1589.42L1132.88 268.528ZM669.922 1618.08C779.355 1618.08 868.068 1529.43 868.068 1420.07C868.068 1310.72 779.355 1222.07 669.922 1222.07C560.488 1222.07 471.775 1310.72 471.775 1420.07C471.775 1529.43 560.488 1618.08 669.922 1618.08ZM1572.01 1425.28C1572.01 1534.64 1483.3 1623.29 1373.86 1623.29C1264.43 1623.29 1175.72 1534.64 1175.72 1425.28C1175.72 1315.93 1264.43 1227.28 1373.86 1227.28C1483.3 1227.28 1572.01 1315.93 1572.01 1425.28ZM1024.5 1055.33C1133.93 1055.33 1222.65 966.681 1222.65 857.327C1222.65 747.973 1133.93 659.323 1024.5 659.323C915.066 659.323 826.353 747.973 826.353 857.327C826.353 966.681 915.066 1055.33 1024.5 1055.33Z" fill="#F3B235"/>
</svg>
