<svg width="2048" height="2048" viewBox="0 0 2048 2048" fill="none" xmlns="http://www.w3.org/2000/svg">
<path fill-rule="evenodd" clip-rule="evenodd" d="M775.918 1061.43L418.819 703.077L543.305 579.027L951.661 988.819V1609.59H775.918V1061.43Z" fill="#F3B235"/>
<path fill-rule="evenodd" clip-rule="evenodd" d="M1271.9 1061.43L1629 703.077L1504.52 579.027L1096.16 988.819V1609.59H1271.9V1061.43Z" fill="#F3B235"/>
<path fill-rule="evenodd" clip-rule="evenodd" d="M723.548 562.592L847.816 438.324L1023.91 614.418L1200 438.324L1324.27 562.592L1023.91 862.955L723.548 562.592Z" fill="#F3B235"/>
<path fill-rule="evenodd" clip-rule="evenodd" d="M471.299 1192.96L340.82 1062.48L465.089 938.213L647.041 1120.16V1441.66H471.299V1192.96Z" fill="#F3B235"/>
<path fill-rule="evenodd" clip-rule="evenodd" d="M1576.52 1192.96L1707 1062.48L1582.73 938.213L1400.78 1120.16V1441.66H1576.52V1192.96Z" fill="#F3B235"/>
</svg>
