<svg width="2048" height="2048" viewBox="0 0 2048 2048" fill="none" xmlns="http://www.w3.org/2000/svg">
<path fill-rule="evenodd" clip-rule="evenodd" d="M871.897 1651.46L772.612 1750.75L662.578 1640.71L761.863 1541.43C906.844 1396.45 1141.9 1396.45 1286.89 1541.43L1386.17 1640.71L1276.14 1750.75L1176.85 1651.46C1092.64 1567.25 956.108 1567.25 871.897 1651.46Z" fill="#F3B235"/>
<path fill-rule="evenodd" clip-rule="evenodd" d="M1176.86 397.285L1276.14 298L1386.18 408.035L1286.89 507.32C1141.91 652.301 906.849 652.3 761.868 507.32L662.583 408.035L772.618 298L871.903 397.285C956.113 481.495 1092.65 481.495 1176.86 397.285Z" fill="#F3B235"/>
<path fill-rule="evenodd" clip-rule="evenodd" d="M397.285 871.889L298 772.604L408.035 662.569L507.32 761.854C652.301 906.835 652.3 1141.9 507.32 1286.88L408.035 1386.16L298 1276.13L397.285 1176.84C481.495 1092.63 481.495 956.099 397.285 871.889Z" fill="#F3B235"/>
<path fill-rule="evenodd" clip-rule="evenodd" d="M1651.47 1176.85L1750.75 1276.14L1640.72 1386.17L1541.43 1286.89C1396.45 1141.91 1396.45 906.845 1541.43 761.864L1640.72 662.579L1750.75 772.614L1651.47 871.899C1567.26 956.109 1567.26 1092.64 1651.47 1176.85Z" fill="#F3B235"/>
</svg>
