<svg width="2048" height="2048" viewBox="0 0 2048 2048" fill="none" xmlns="http://www.w3.org/2000/svg">
<path d="M1382.94 417H1506.79L1424.23 555.765H1581.28L1663.85 417H1743.92C1798.64 417 1843 461.351 1843 516.06V635.434H204V516.06C204 461.35 248.361 417 303.083 417H383.147L300.578 555.765H457.636L540.205 417H664.059L581.49 555.765H738.548L821.117 417H944.971L862.402 555.765H1019.46L1102.03 417H1225.88L1143.31 555.765H1300.37L1382.94 417Z" fill="#F3B235"/>
<path d="M787.219 1063.73L766.214 923.459L745.208 1063.73H787.219Z" fill="#F3B235"/>
<path d="M951.787 942.479C951.787 922.667 945.049 913.95 929.592 913.95H908.587V999.141H925.629C941.879 999.141 951.787 992.009 951.787 969.819V942.479Z" fill="#F3B235"/>
<path fill-rule="evenodd" clip-rule="evenodd" d="M204 705.602H1843V1291.71H204V705.602ZM656.498 1151.69H598.633L582.78 1003.9L566.927 1151.69H507.08L476.166 874.326H518.574L541.958 1093.05L562.963 874.326H604.974L626.773 1094.63L649.364 874.326H687.412L656.498 1151.69ZM736.489 874.326H800.298L844.687 1151.69H800.695L793.164 1101.37H739.659L732.129 1151.69H692.099L736.489 874.326ZM995.78 1118.01C995.78 1131.48 996.176 1141.39 1000.54 1151.69H956.147L956.026 1151.33C953.715 1144.41 952.183 1139.82 952.183 1117.62V1074.03C952.183 1048.27 943.464 1038.76 923.647 1038.76H908.587V1151.69H864.99V874.326H930.781C975.963 874.326 995.384 895.326 995.384 938.12V959.913C995.384 988.442 986.268 1007.07 966.848 1016.18C988.646 1025.29 995.78 1046.29 995.78 1075.22V1118.01ZM1162.38 1151.69H1117.59L1063.29 950.8V1151.69H1024.06V874.326H1078.75L1123.54 1040.35V874.326H1162.38V1151.69ZM1237.19 1151.69H1193.59V874.326H1237.19V1151.69ZM1406.99 1151.69H1362.2L1307.9 950.8V1151.69H1268.67V874.326H1323.36L1368.15 1040.35V874.326H1406.99V1151.69ZM1523.41 1036.78H1503.6V997.16H1564.63V1085.12C1564.63 1129.5 1542.44 1154.86 1499.63 1154.86C1456.83 1154.86 1434.63 1129.5 1434.63 1085.12V940.894C1434.63 896.515 1456.83 871.156 1499.63 871.156C1542.44 871.156 1564.63 896.515 1564.63 940.894V967.838H1523.41V938.12C1523.41 918.308 1514.69 910.78 1500.82 910.78C1486.95 910.78 1478.23 918.308 1478.23 938.12V1087.9C1478.23 1107.71 1486.95 1114.84 1500.82 1114.84C1514.69 1114.84 1523.41 1107.71 1523.41 1087.9V1036.78Z" fill="#F3B235"/>
<path d="M204 1361.87V1531.94C204 1586.65 248.361 1631 303.083 1631H352.663L465.716 1441H622.774L509.721 1631H633.575L746.628 1441H903.686L790.633 1631H914.487L1027.54 1441H1184.6L1071.54 1631H1195.4L1308.45 1441H1465.51L1352.46 1631H1476.31L1589.36 1441H1746.42L1633.37 1631H1743.92C1798.64 1631 1843 1586.65 1843 1531.94V1361.87H204Z" fill="#F3B235"/>
</svg>
