<svg width="2048" height="2048" viewBox="0 0 2048 2048" fill="none" xmlns="http://www.w3.org/2000/svg">
<path fill-rule="evenodd" clip-rule="evenodd" d="M1619.95 256.762H427.05C332.45 256.762 255.762 333.45 255.762 428.05V1620.95C255.762 1715.55 332.45 1792.24 427.05 1792.24H1619.95C1714.55 1792.24 1791.24 1715.55 1791.24 1620.95V428.05C1791.24 333.45 1714.55 256.762 1619.95 256.762ZM427.05 165C281.771 165 164 282.771 164 428.05V1620.95C164 1766.23 281.771 1884 427.05 1884H1619.95C1765.23 1884 1883 1766.23 1883 1620.95V428.05C1883 282.771 1765.23 165 1619.95 165H427.05Z" fill="#F3B235"/>
<path d="M347.523 1406.84L641.16 1700.48H347.523V1406.84Z" fill="#F3B235"/>
<path d="M1699.48 642.16L1405.84 348.523H1699.48V642.16Z" fill="#F3B235"/>
<path d="M347.523 1259.81V935.797L1112.2 1700.48H788.186L347.523 1259.81Z" fill="#F3B235"/>
<path d="M347.523 798.155V415.815L1632.19 1700.48H1249.85L347.523 798.155Z" fill="#F3B235"/>
<path d="M1699.48 1250.85V1633.19L414.815 348.523H797.155L1699.48 1250.85Z" fill="#F3B235"/>
<path d="M1699.48 789.186V1113.2L934.797 348.523H1258.81L1699.48 789.186Z" fill="#F3B235"/>
</svg>
