<svg width="2048" height="2048" viewBox="0 0 2048 2048" fill="none" xmlns="http://www.w3.org/2000/svg">
<path d="M67.0242 918.875L67.0242 1132L31 1132L31 918.875L67.0242 918.875Z" fill="#F3B235"/>
<path d="M136.029 917.193V1130.32L100.005 1130.32V917.193L136.029 917.193Z" fill="#F3B235"/>
<path d="M311.116 918.875V1132L169.039 918.875L311.116 918.875Z" fill="#F3B235"/>
<path d="M482.13 917.193V1130.32L339.717 1130.32V917.193L482.13 917.193Z" fill="#F3B235"/>
<path d="M652.834 1132L510.758 1132V918.875L652.834 1132Z" fill="#F3B235"/>
<path d="M823.865 917.193V1130.32L681.788 1130.32V917.193L823.865 917.193Z" fill="#F3B235"/>
<path d="M1779.15 917.193V1130.32L1636.73 1130.32V917.193L1779.15 917.193Z" fill="#F3B235"/>
<path d="M1919.5 1025.07L1811.74 918.722H1859.24L1967 1025.07L1859.24 1131.42H1811.74L1919.5 1025.07Z" fill="#F3B235"/>
<path d="M1445.4 1061V1025.5L1410 1061V1096.5L1445.4 1061Z" fill="#F3B235"/>
<path d="M1516.2 1025.5V990L1480.8 1025.5V1061L1516.2 1025.5Z" fill="#F3B235"/>
<path d="M1551.6 954.5V919L1516.2 954.5V990L1551.6 954.5Z" fill="#F3B235"/>
<path d="M1303.8 1025.5V990L1268.4 1025.5V1061L1303.8 1025.5Z" fill="#F3B235"/>
<path d="M1303.8 1096.5V1061L1339.2 1096.5V1132L1303.8 1096.5Z" fill="#F3B235"/>
<path d="M1162.2 954.5V919L1126.8 954.5V990L1162.2 954.5Z" fill="#F3B235"/>
<path d="M1587 1000.4L1455.77 1132H1505.83L1587 1050.6V1000.4Z" fill="#F3B235"/>
<path d="M1505.83 919L1374.6 1050.6V1000.4L1455.77 919H1505.83Z" fill="#F3B235"/>
<path d="M1056 954.5V990L1020.6 954.5V919L1056 954.5Z" fill="#F3B235"/>
<path d="M879 990L879 1025.5L914.4 990V954.5L879 990Z" fill="#F3B235"/>
<path d="M1091.4 1132H1084.07L967.499 1015.1V1071.4L1027.93 1132H977.868L932.099 1086.1V919H967.499V964.898L1091.4 1089.15V1132Z" fill="#F3B235"/>
<path d="M1328.83 919L1187.23 1061L1222.63 1096.5H1268.4V1132H1207.97L1137.17 1061L1278.77 919H1328.83Z" fill="#F3B235"/>
</svg>
