<svg width="2048" height="2048" viewBox="0 0 2048 2048" fill="none" xmlns="http://www.w3.org/2000/svg">
<path fill-rule="evenodd" clip-rule="evenodd" d="M435.659 797.336C425.677 475.166 612.975 194 1024.47 194C1465.6 194 1620.76 475.173 1610.24 797.348C1608.66 845.599 1596.15 892.091 1578.34 936.946C1550.41 895.902 1514.7 853.228 1470.37 815.092L1429.52 862.546C1501.34 924.326 1547.98 999.729 1573.59 1054.44C1590.29 1105.36 1589.27 1160.84 1570.05 1211.63L1560.52 1236.82C1543.83 1234.45 1526.78 1233.22 1509.44 1233.22C1408.98 1233.22 1318.13 1274.34 1252.81 1340.67C1190.16 1233.01 1109.27 1151.84 1020.95 1151.84C934.772 1151.84 855.667 1229.11 793.684 1332.86C729.039 1271.13 641.439 1233.22 544.98 1233.22C525.838 1233.22 507.046 1234.72 488.712 1237.59L478.884 1211.63C458.922 1158.89 458.594 1101.09 477.347 1048.58C503.495 994.435 549.341 922.15 618.637 862.546L577.789 815.092C532.663 853.906 496.478 897.42 468.33 939.134C450.064 893.6 437.178 846.375 435.659 797.336ZM1191.41 1424.19C1165.66 1472.5 1150.61 1527.37 1149.41 1585.64C1068.32 1596.47 986.16 1596.71 905.022 1586.36C903.843 1523.1 886.339 1463.83 856.545 1412.58C884.601 1359.88 915.388 1316.46 946.117 1286.72C979.801 1254.13 1004.97 1245.74 1020.95 1245.74C1036.93 1245.74 1062.09 1254.13 1095.77 1286.72C1128.73 1318.62 1161.76 1366.25 1191.41 1424.19ZM845.527 1132.02L905.45 1099.8C959.374 1070.81 963.188 994.925 912.442 960.676L861.833 926.519C797.745 883.264 711.675 893.207 659.145 949.933C615.592 996.965 619.902 1070.84 668.499 1112.65C717.796 1155.05 788.248 1162.81 845.527 1132.02ZM1142.7 1099.8L1202.63 1132.02C1259.91 1162.81 1330.36 1155.05 1379.66 1112.65C1428.25 1070.84 1432.56 996.965 1389.01 949.933C1336.48 893.207 1250.41 883.264 1186.32 926.519L1135.71 960.676C1084.97 994.925 1088.78 1070.81 1142.7 1099.8Z" fill="#F3B235"/>
<path d="M804.805 1593.19C804.805 1736.68 688.443 1853 544.903 1853C401.362 1853 285 1736.68 285 1593.19C285 1449.71 401.362 1333.39 544.903 1333.39C688.443 1333.39 804.805 1449.71 804.805 1593.19Z" fill="#F3B235"/>
<path d="M1763 1593.19C1763 1736.68 1646.64 1853 1503.1 1853C1359.56 1853 1243.19 1736.68 1243.19 1593.19C1243.19 1449.71 1359.56 1333.39 1503.1 1333.39C1646.64 1333.39 1763 1449.71 1763 1593.19Z" fill="#F3B235"/>
</svg>
