<svg width="2048" height="2048" viewBox="0 0 2048 2048" fill="none" xmlns="http://www.w3.org/2000/svg">
<path fill-rule="evenodd" clip-rule="evenodd" d="M1023.5 1777.95C1439.62 1777.95 1776.95 1440.62 1776.95 1024.5C1776.95 608.383 1439.62 271.053 1023.5 271.053C607.383 271.053 270.053 608.383 270.053 1024.5C270.053 1440.62 607.383 1777.95 1023.5 1777.95ZM1023.5 1868C1489.35 1868 1867 1490.35 1867 1024.5C1867 558.648 1489.35 181 1023.5 181C557.648 181 180 558.648 180 1024.5C180 1490.35 557.648 1868 1023.5 1868Z" fill="#F3B235"/>
<path d="M1867 1024.5C1867 913.73 1845.18 804.045 1802.79 701.707C1760.4 599.368 1698.27 506.382 1619.94 428.055C1541.62 349.729 1448.63 287.597 1346.29 245.208C1243.96 202.818 1134.27 181 1023.5 181L1023.5 1024.5H1867Z" fill="#F3B235"/>
<path d="M180 1024.5C180 1135.27 201.818 1244.96 244.208 1347.29C286.597 1449.63 348.729 1542.62 427.055 1620.94C505.382 1699.27 598.368 1761.4 700.706 1803.79C803.045 1846.18 912.73 1868 1023.5 1868L1023.5 1024.5H180Z" fill="#F3B235"/>
</svg>
