<svg width="2048" height="2048" viewBox="0 0 2048 2048" fill="none" xmlns="http://www.w3.org/2000/svg">
<path fill-rule="evenodd" clip-rule="evenodd" d="M1531 870.823H517V1226.07C517 1506.04 743.992 1733 1024 1733C1304.01 1733 1531 1506.04 1531 1226.07V870.823ZM1021.15 1124.39C968.545 1124.39 925.898 1167.03 925.898 1219.63V1405.47C925.898 1458.07 968.545 1500.71 1021.15 1500.71C1073.76 1500.71 1116.41 1458.07 1116.41 1405.47V1219.63C1116.41 1167.03 1073.76 1124.39 1021.15 1124.39Z" fill="#F3B235"/>
<path fill-rule="evenodd" clip-rule="evenodd" d="M1241.87 873.509V699.288C1241.87 577.409 1143.05 478.607 1021.15 478.607C899.257 478.607 800.441 577.409 800.441 699.288V873.509H1241.87ZM1021.15 316C809.439 316 637.811 487.604 637.811 699.288V1036.12H1404.5V699.288C1404.5 487.604 1232.87 316 1021.15 316Z" fill="#F3B235"/>
</svg>
