<svg width="2048" height="2048" viewBox="0 0 2048 2048" fill="none" xmlns="http://www.w3.org/2000/svg">
<path d="M1771 1023.5C1771 875.659 1727.16 731.137 1645.02 608.211C1562.89 485.286 1446.14 389.477 1309.56 332.9C1172.97 276.324 1022.67 261.521 877.67 290.363C732.669 319.206 599.478 390.398 494.938 494.938C390.398 599.478 319.206 732.669 290.363 877.67C261.521 1022.67 276.324 1172.97 332.9 1309.56C389.477 1446.14 485.286 1562.89 608.212 1645.02C731.137 1727.16 875.659 1771 1023.5 1771V1349.33C959.058 1349.33 896.062 1330.22 842.48 1294.42C788.898 1258.61 747.136 1207.73 722.475 1148.19C697.814 1088.65 691.362 1023.14 703.934 959.934C716.506 896.73 747.538 838.673 793.106 793.106C838.673 747.538 896.73 716.506 959.934 703.934C1023.14 691.362 1088.65 697.814 1148.19 722.475C1207.73 747.136 1258.61 788.898 1294.42 842.48C1330.22 896.062 1349.33 959.058 1349.33 1023.5H1771Z" fill="#F3B235"/>
<path d="M1350.7 1350.7H1771V1771H1350.7V1350.7Z" fill="#F3B235"/>
</svg>
