<svg width="2048" height="2048" viewBox="0 0 2048 2048" fill="none" xmlns="http://www.w3.org/2000/svg">
<path d="M1559.69 903.817C1559.69 761.709 1503.25 625.422 1402.79 524.937C1302.33 424.452 1166.07 368 1024 368C881.926 368 745.671 424.452 645.21 524.937C544.748 625.422 488.31 761.709 488.31 903.816L1559.69 903.817Z" fill="#F3B235"/>
<path fill-rule="evenodd" clip-rule="evenodd" d="M1625.3 1152.94C1641.89 1112.88 1654.39 1071.36 1662.69 1029.01L385.309 1029.01C393.606 1071.36 406.113 1112.88 422.703 1152.94C455.411 1231.92 503.351 1303.69 563.787 1364.14C624.223 1424.59 695.971 1472.54 774.935 1505.26C853.898 1537.97 938.53 1554.81 1024 1554.81C1109.47 1554.81 1194.1 1537.97 1273.07 1505.26C1352.03 1472.54 1423.78 1424.59 1484.21 1364.14C1544.65 1303.69 1592.59 1231.92 1625.3 1152.94ZM258.16 1029.01C267.773 1087.84 284.154 1145.51 307.069 1200.85C346.067 1295.02 403.227 1380.59 475.285 1452.66C547.343 1524.74 632.889 1581.91 727.037 1620.92C821.186 1659.92 922.094 1680 1024 1680C1125.91 1680 1226.81 1659.92 1320.96 1620.92C1415.11 1581.91 1500.66 1524.74 1572.71 1452.66C1644.77 1380.59 1701.93 1295.02 1740.93 1200.85C1763.85 1145.51 1780.23 1087.84 1789.84 1029.01C1796.59 987.717 1800 945.852 1800 903.817L248 903.817C248 945.851 251.413 987.716 258.16 1029.01Z" fill="#F3B235"/>
</svg>
