<svg width="2048" height="2048" viewBox="0 0 2048 2048" fill="none" xmlns="http://www.w3.org/2000/svg">
<path d="M1458.28 1024C1458.28 908.822 1412.52 798.362 1331.08 716.919C1249.64 635.477 1139.18 589.723 1024 589.723C908.822 589.723 798.362 635.477 716.92 716.919C635.477 798.362 589.723 908.822 589.723 1024L763.434 1024C763.434 954.893 790.886 888.617 839.752 839.752C888.617 790.886 954.893 763.433 1024 763.433C1093.11 763.433 1159.38 790.886 1208.25 839.752C1257.11 888.617 1284.57 954.893 1284.57 1024H1458.28Z" fill="#F3B235"/>
<path fill-rule="evenodd" clip-rule="evenodd" d="M645.644 1076.32C656.979 1158.3 694.734 1234.9 753.917 1294.08C825.548 1365.71 922.699 1405.95 1024 1405.95C1125.3 1405.95 1222.45 1365.71 1294.08 1294.08C1353.27 1234.9 1391.02 1158.3 1402.36 1076.32L1332.48 1076.32C1321.7 1139.89 1291.44 1199.05 1245.25 1245.25C1186.57 1303.92 1106.98 1336.89 1024 1336.89C941.017 1336.89 861.432 1303.92 802.754 1245.25C756.557 1199.05 726.298 1139.89 715.515 1076.32H645.644ZM592.884 1076.32C604.521 1172.22 647.907 1262.07 716.919 1331.08C798.362 1412.52 908.822 1458.28 1024 1458.28C1139.18 1458.28 1249.64 1412.52 1331.08 1331.08C1400.09 1262.07 1443.48 1172.22 1455.12 1076.32C1457.21 1059.05 1458.28 1041.58 1458.28 1024H1284.57C1284.57 1093.11 1257.11 1159.38 1208.25 1208.25C1159.38 1257.11 1093.11 1284.57 1024 1284.57C954.893 1284.57 888.617 1257.11 839.752 1208.25C790.886 1159.38 763.434 1093.11 763.434 1024L589.723 1024C589.723 1041.58 590.788 1059.05 592.884 1076.32Z" fill="#F3B235"/>
<path fill-rule="evenodd" clip-rule="evenodd" d="M1591.7 1024H1835C1835 1067.92 1831.43 1111.66 1824.38 1154.81C1814.33 1216.28 1797.22 1276.54 1773.27 1334.36C1732.51 1432.75 1672.77 1522.16 1597.46 1597.46C1522.16 1672.77 1432.75 1732.51 1334.36 1773.27C1235.96 1814.02 1130.5 1835 1024 1835C917.498 1835 812.038 1814.02 713.643 1773.27C615.248 1732.51 525.844 1672.77 450.536 1597.46C375.228 1522.15 315.49 1432.75 274.734 1334.36C250.785 1276.54 233.665 1216.28 223.618 1154.81C216.567 1111.66 213 1067.92 213 1024L456.3 1024C456.3 1098.55 470.984 1172.37 499.513 1241.25C528.043 1310.13 569.859 1372.71 622.575 1425.42C675.291 1478.14 737.874 1519.96 806.75 1548.49C875.627 1577.02 949.448 1591.7 1024 1591.7C1098.55 1591.7 1172.37 1577.02 1241.25 1548.49C1310.13 1519.96 1372.71 1478.14 1425.42 1425.42C1478.14 1372.71 1519.96 1310.13 1548.49 1241.25C1577.02 1172.37 1591.7 1098.55 1591.7 1024Z" fill="#F3B235"/>
<path fill-rule="evenodd" clip-rule="evenodd" d="M323.073 733.667C291.636 809.563 272.779 889.953 267.129 971.677H406.189C411.566 908.183 426.709 845.791 451.174 786.728C482.333 711.503 528.003 643.152 585.578 585.578C643.152 528.003 711.503 482.333 786.728 451.174C861.952 420.015 942.578 403.977 1024 403.977C1105.42 403.977 1186.05 420.015 1261.27 451.174C1336.5 482.333 1404.85 528.004 1462.42 585.578C1520 643.153 1565.67 711.503 1596.83 786.728C1621.29 845.791 1636.43 908.184 1641.81 971.678L1780.87 971.678C1775.22 889.953 1756.36 809.564 1724.93 733.667C1686.8 641.62 1630.92 557.984 1560.47 487.534C1490.02 417.085 1406.38 361.201 1314.33 323.074C1222.29 284.946 1123.63 265.323 1024 265.323C924.369 265.323 825.714 284.946 733.667 323.073C641.62 361.2 557.984 417.084 487.534 487.534C417.084 557.984 361.201 641.62 323.073 733.667ZM1833.31 971.678C1827.58 883.076 1807.33 795.892 1773.27 713.644C1732.51 615.249 1672.77 525.845 1597.46 450.537C1522.16 375.228 1432.75 315.49 1334.36 274.734C1235.96 233.977 1130.5 213 1024 213C917.498 213 812.039 233.977 713.644 274.734C615.249 315.49 525.845 375.228 450.537 450.536C375.228 525.845 315.49 615.249 274.734 713.644C240.666 795.891 220.418 883.075 214.69 971.677C213.565 989.072 213 1006.52 213 1024L456.3 1024C456.3 949.448 470.984 875.627 499.514 806.751C528.043 737.874 569.86 675.291 622.576 622.575C675.291 569.86 737.874 528.043 806.751 499.514C875.627 470.984 949.449 456.3 1024 456.3C1098.55 456.3 1172.37 470.984 1241.25 499.514C1310.13 528.043 1372.71 569.86 1425.42 622.576C1478.14 675.292 1519.96 737.874 1548.49 806.751C1577.02 875.628 1591.7 949.448 1591.7 1024H1835C1835 1006.52 1834.44 989.073 1833.31 971.678Z" fill="#F3B235"/>
</svg>
