<svg width="2048" height="2048" viewBox="0 0 2048 2048" fill="none" xmlns="http://www.w3.org/2000/svg">
<path d="M1659.43 1024.5C1659.43 1375.71 1374.71 1660.43 1023.5 1660.43C672.285 1660.43 387.569 1375.71 387.569 1024.5C387.569 673.285 672.285 388.569 1023.5 388.569C1374.71 388.569 1659.43 673.285 1659.43 1024.5Z" fill="#F3B235"/>
<path fill-rule="evenodd" clip-rule="evenodd" d="M1023.5 1749.6C1423.96 1749.6 1748.6 1424.96 1748.6 1024.5C1748.6 624.037 1423.96 299.398 1023.5 299.398C623.037 299.398 298.398 624.037 298.398 1024.5C298.398 1424.96 623.037 1749.6 1023.5 1749.6ZM1023.5 1820C1462.84 1820 1819 1463.84 1819 1024.5C1819 585.157 1462.84 229 1023.5 229C584.157 229 228 585.157 228 1024.5C228 1463.84 584.157 1820 1023.5 1820Z" fill="#F3B235"/>
</svg>
