<svg width="2048" height="2048" viewBox="0 0 2048 2048" fill="none" xmlns="http://www.w3.org/2000/svg">
<path fill-rule="evenodd" clip-rule="evenodd" d="M1025.48 315C608.893 315 419.278 599.791 429.383 926.115C430.921 975.787 443.966 1023.62 462.458 1069.74C490.955 1027.49 527.588 983.415 573.271 944.1L614.625 992.167C544.472 1052.54 498.058 1125.76 471.587 1180.6C452.602 1233.78 452.934 1292.33 473.143 1345.75L497.143 1409.19C514.137 1454.1 553.777 1486.56 601.159 1494.35C690.474 1509.03 756.018 1586.24 756.018 1676.77V1694.19C931.932 1745.94 1119.02 1745.94 1294.94 1694.19V1676.77C1294.94 1586.24 1360.48 1509.03 1449.79 1494.35C1497.18 1486.56 1536.82 1454.1 1553.81 1409.19L1577.81 1345.75C1597.27 1294.31 1598.3 1238.11 1581.4 1186.53C1555.46 1131.12 1508.25 1054.74 1435.54 992.167L1476.89 944.1C1521.78 982.729 1557.93 1025.95 1586.21 1067.53C1604.23 1022.09 1616.9 975.001 1618.5 926.128C1629.15 599.799 1472.07 315 1025.48 315ZM904.987 1232.48L844.323 1265.11C786.335 1296.31 715.011 1288.45 665.104 1245.49C615.906 1203.15 611.542 1128.32 655.634 1080.68C708.814 1023.22 795.95 1013.15 860.831 1056.96L912.066 1091.56C963.439 1126.25 959.578 1203.11 904.987 1232.48ZM1205.84 1265.11L1145.18 1232.48C1090.59 1203.11 1086.72 1126.25 1138.1 1091.56L1189.33 1056.96C1254.21 1013.15 1341.35 1023.22 1394.53 1080.68C1438.62 1128.32 1434.26 1203.15 1385.06 1245.49C1335.15 1288.45 1263.83 1296.31 1205.84 1265.11Z" fill="#F3B235"/>
</svg>
