<svg width="2048" height="2048" viewBox="0 0 2048 2048" fill="none" xmlns="http://www.w3.org/2000/svg">
<path d="M1628.13 834.747L1878.97 1016.73C1883.97 1020.36 1883.97 1027.81 1878.97 1031.43L1628.13 1213.42C1622.13 1217.77 1613.72 1213.48 1613.72 1206.07V1146.09C1613.72 1141.07 1609.65 1137.01 1604.64 1137.01H443.553C438.538 1137.01 434.472 1141.07 434.472 1146.09V1206.07C434.472 1213.48 426.061 1217.77 420.057 1213.42L169.217 1031.43C164.219 1027.81 164.219 1020.36 169.217 1016.73L420.057 834.747C426.061 830.391 434.472 834.68 434.472 842.098V902.074C434.472 907.09 438.538 911.156 443.553 911.156L1604.64 911.156C1609.65 911.156 1613.72 907.09 1613.72 902.074V842.098C1613.72 834.68 1622.13 830.391 1628.13 834.747Z" fill="#F3B235"/>
</svg>
