<svg width="2048" height="2048" viewBox="0 0 2048 2048" fill="none" xmlns="http://www.w3.org/2000/svg">
<path fill-rule="evenodd" clip-rule="evenodd" d="M1029.57 487C729.553 487 592.999 692.058 600.276 927.02C601.384 962.785 610.778 997.227 624.095 1030.44C644.618 1000.01 671 968.278 703.9 939.97L733.681 974.579C683.159 1018.05 649.733 1070.77 630.67 1110.26C616.997 1148.55 617.236 1190.71 631.79 1229.17L649.075 1274.85C661.313 1307.19 689.86 1330.56 723.984 1336.17C788.305 1346.74 835.508 1402.33 835.508 1467.51V1480.06C962.195 1517.31 1096.93 1517.31 1223.62 1480.06V1467.51C1223.62 1402.33 1270.82 1346.74 1335.14 1336.17C1369.27 1330.56 1397.81 1307.19 1410.05 1274.85L1427.34 1229.17C1441.35 1192.13 1442.09 1151.67 1429.92 1114.53C1411.24 1074.63 1377.24 1019.64 1324.88 974.579L1354.66 939.97C1386.98 967.783 1413.02 998.906 1433.38 1028.84C1446.36 996.127 1455.49 962.219 1456.64 927.03C1464.31 692.063 1351.18 487 1029.57 487ZM942.79 1147.61L899.102 1171.11C857.341 1193.57 805.976 1187.91 770.035 1156.98C734.604 1126.49 731.461 1072.61 763.215 1038.31C801.513 996.94 864.266 989.689 910.991 1021.24L947.889 1046.15C984.886 1071.12 982.106 1126.47 942.79 1147.61ZM1159.46 1171.11L1115.77 1147.61C1076.45 1126.47 1073.67 1071.12 1110.67 1046.15L1147.57 1021.24C1194.29 989.689 1257.05 996.94 1295.34 1038.31C1327.1 1072.61 1323.95 1126.49 1288.52 1156.98C1252.58 1187.91 1201.22 1193.57 1159.46 1171.11Z" fill="#F3B235"/>
<path fill-rule="evenodd" clip-rule="evenodd" d="M1613.84 774.131C1645 766.618 1682.14 769.258 1711.14 782.894C1750.05 801.185 1796.98 800.766 1837.03 777.644C1902.03 740.12 1924.3 657.014 1886.77 592.021C1878.18 577.136 1867.19 564.492 1854.58 554.294C1829.4 533.937 1810.64 501.446 1805.6 469.468C1803.07 453.447 1797.61 437.612 1789.02 422.727C1751.49 357.734 1668.38 335.466 1603.38 372.989C1562.39 396.651 1538.4 438.436 1535.67 482.376C1533.65 514.995 1517.62 549.807 1495.56 573.92C1495.01 574.513 1494.48 575.113 1493.94 575.72L1472.75 599.793C1469.76 603.188 1466.38 606.216 1462.68 608.814C1496.7 666.703 1517.01 733.492 1525.7 804.998L1563.6 786.286C1568.06 784.084 1572.79 782.473 1577.66 781.493L1609.11 775.177C1610.7 774.857 1612.28 774.508 1613.84 774.131ZM1258.81 1217.08L1280.01 1180.36C1295.09 1154.24 1327.85 1144.32 1354.89 1157.67L1355.31 1157.88C1349.86 1167.97 1342.5 1177.26 1333.27 1185.2C1311.84 1203.64 1285.73 1214.41 1258.81 1217.08ZM1395.78 1393.51C1432.24 1384.84 1462.29 1358.64 1475.68 1323.27L1495.93 1269.76C1500.56 1257.54 1503.95 1245.01 1506.11 1232.33L1563.6 1260.71C1568.06 1262.91 1572.79 1264.52 1577.66 1265.5L1609.11 1271.82C1610.7 1272.14 1612.28 1272.49 1613.84 1272.86C1645 1280.38 1682.14 1277.74 1711.14 1264.1C1750.05 1245.81 1796.98 1246.23 1837.03 1269.35C1902.03 1306.88 1924.3 1389.98 1886.77 1454.97C1878.18 1469.86 1867.19 1482.5 1854.58 1492.7C1829.4 1513.06 1810.64 1545.55 1805.6 1577.53C1803.07 1593.55 1797.61 1609.38 1789.02 1624.27C1751.49 1689.26 1668.38 1711.53 1603.38 1674.01C1562.39 1650.34 1538.4 1608.56 1535.67 1564.62C1533.65 1532 1517.62 1497.19 1495.56 1473.08C1495.01 1472.48 1494.48 1471.88 1493.94 1471.28L1472.75 1447.2C1469.46 1443.47 1465.7 1440.18 1461.56 1437.42L1395.78 1393.51ZM701.774 1154.23C726.825 1146.58 754.495 1156.99 767.995 1180.37L788.192 1215.35C765.557 1211.03 743.929 1200.89 725.691 1185.2C715.36 1176.32 707.372 1165.74 701.774 1154.23ZM552.673 1227.01C554.753 1241.5 558.422 1255.84 563.693 1269.76L583.948 1323.27C596.318 1355.95 622.907 1380.8 655.644 1391.24L586.435 1437.42C582.298 1440.19 578.539 1443.47 575.252 1447.21L554.059 1471.28C553.524 1471.89 552.986 1472.49 552.443 1473.08C530.382 1497.19 514.355 1532.01 512.33 1564.62C509.603 1608.56 485.606 1650.35 444.62 1674.01C379.621 1711.53 296.507 1689.27 258.98 1624.27C250.386 1609.39 244.927 1593.55 242.401 1577.53C237.357 1545.55 218.597 1513.06 193.422 1492.71C180.81 1482.51 169.824 1469.86 161.23 1454.98C123.702 1389.99 145.973 1306.88 210.971 1269.36C251.024 1246.23 297.954 1245.82 336.858 1264.11C365.861 1277.74 403.002 1280.38 434.157 1272.87C435.72 1272.49 437.298 1272.14 438.892 1271.82L470.338 1265.51C475.215 1264.53 479.943 1262.92 484.402 1260.71L552.673 1227.01ZM597.875 617.215C563.515 674.46 541.752 739.967 532.152 809.865L484.402 786.29C479.943 784.088 475.215 782.477 470.338 781.498L438.892 775.182C437.298 774.861 435.72 774.513 434.157 774.136C403.002 766.622 365.861 769.263 336.858 782.898C297.954 801.189 251.024 800.77 210.971 777.648C145.973 740.125 123.702 657.018 161.23 592.026C169.824 577.14 180.81 564.496 193.422 554.298C218.597 533.941 237.357 501.451 242.401 469.472C244.927 453.452 250.386 437.617 258.98 422.732C296.507 357.739 379.621 335.47 444.62 372.994C485.606 396.655 509.603 438.441 512.33 482.381C514.355 515 530.382 549.811 552.443 573.925C552.986 574.518 553.524 575.118 554.059 575.725L575.252 599.797C578.539 603.531 582.298 606.819 586.435 609.58L597.875 617.215Z" fill="#F3B235"/>
</svg>
