<svg width="2048" height="2048" viewBox="0 0 2048 2048" fill="none" xmlns="http://www.w3.org/2000/svg">
<path fill-rule="evenodd" clip-rule="evenodd" d="M633.225 436.355L421 352.027L438.217 576.713L581.55 615.119C668.894 638.522 720.728 728.301 697.324 815.644L451.478 749.77L460.087 862.109L581.55 894.655C668.894 918.059 720.728 1007.84 697.324 1095.18L473.348 1035.17L481.956 1147.51L581.55 1174.19C668.894 1197.6 720.728 1287.37 697.324 1374.72L519.722 1327.13C551.741 1397.3 604.234 1457.42 671.805 1498.69L992.053 1694.26V510.666C870.101 506.984 748.636 482.214 633.225 436.355ZM1051.95 510.779V1696.7L1376.2 1498.69C1444.23 1457.14 1496.98 1396.47 1528.94 1325.68L1345.91 1374.72C1322.51 1287.37 1374.34 1197.6 1461.69 1174.19L1566.14 1146.2L1574.75 1033.86L1345.91 1095.18C1322.51 1007.84 1374.34 918.059 1461.69 894.655L1588.01 860.806L1596.62 748.467L1345.91 815.644C1322.51 728.301 1374.34 638.522 1461.69 615.119L1609.88 575.41L1627 352.027L1414.78 436.355C1298.1 482.714 1175.25 507.522 1051.95 510.779Z" fill="#F3B235"/>
</svg>
