<svg width="2048" height="2048" viewBox="0 0 2048 2048" fill="none" xmlns="http://www.w3.org/2000/svg">
<path d="M1080.88 722.179H968.128V1237.57H1080.88V722.179Z" fill="#F3B235"/>
<path d="M1080.88 1332.06H968.128V1473.8H1080.88V1332.06Z" fill="#F3B235"/>
<path fill-rule="evenodd" clip-rule="evenodd" d="M1728.35 1480.84L1130.28 445.021C1083.27 363.596 965.732 363.596 918.718 445.021L320.645 1480.84C273.631 1562.27 332.399 1664.05 426.427 1664.05H1622.57C1716.6 1664.05 1775.37 1562.27 1728.35 1480.84ZM1211.65 398.045C1128.47 253.985 920.527 253.985 837.348 398.045L239.275 1433.87C156.096 1577.93 260.07 1758 426.427 1758H1622.57C1788.93 1758 1892.9 1577.93 1809.72 1433.87L1211.65 398.045Z" fill="#F3B235"/>
</svg>
