<svg width="2048" height="2048" viewBox="0 0 2048 2048" fill="none" xmlns="http://www.w3.org/2000/svg">
<path d="M126 790.755V750.755H86V790.755H126ZM1357.59 790.755V830.755H1397.59V790.755H1357.59ZM1357.59 653L1379.56 619.569L1317.59 578.864V653H1357.59ZM1922 1023.78L1943.98 1057.2L1994.82 1023.76L1943.96 990.345L1922 1023.78ZM126 1257.24H86V1297.24H126V1257.24ZM1357.59 1257.24H1397.59V1217.24H1357.59V1257.24ZM1357.59 1395H1317.59V1469.19L1379.57 1428.42L1357.59 1395ZM126 830.755H1357.59V750.755H126V830.755ZM1397.59 790.755V653H1317.59V790.755H1397.59ZM1335.63 686.431L1900.04 1057.21L1943.96 990.345L1379.56 619.569L1335.63 686.431ZM126 1297.24H1357.59V1217.24H126V1297.24ZM1317.59 1257.24V1395H1397.59V1257.24H1317.59ZM1379.57 1428.42L1943.98 1057.2L1900.02 990.357L1335.61 1361.58L1379.57 1428.42ZM86 790.755V1257.24H166V790.755H86Z" fill="#F3B235"/>
</svg>
