<svg width="2048" height="2048" viewBox="0 0 2048 2048" fill="none" xmlns="http://www.w3.org/2000/svg">
<path fill-rule="evenodd" clip-rule="evenodd" d="M1812.28 1127.83L1748.71 1119.54C1752.78 1088.3 1754.89 1056.41 1754.89 1024C1754.89 991.588 1752.78 959.7 1748.71 928.458L1812.28 920.166C1816.71 954.149 1819 988.808 1819 1024C1819 1059.19 1816.71 1093.85 1812.28 1127.83ZM1758.68 719.684L1699.45 744.242C1674.83 684.858 1642.58 629.396 1603.92 579.082L1654.75 540.017C1696.79 594.722 1731.87 655.052 1758.68 719.684ZM1507.98 393.247L1468.92 444.084C1418.6 405.42 1363.14 373.174 1303.76 348.548L1328.32 289.325C1392.95 316.127 1453.28 351.209 1507.98 393.247ZM1127.83 235.72L1119.54 299.294C1088.3 295.219 1056.41 293.113 1024 293.113C991.588 293.113 959.7 295.219 928.458 299.294L920.166 235.72C954.149 231.287 988.808 229 1024 229C1059.19 229 1093.85 231.287 1127.83 235.72ZM719.684 289.325L744.242 348.548C684.858 373.174 629.396 405.42 579.082 444.084L540.017 393.247C594.722 351.209 655.052 316.127 719.684 289.325ZM393.248 540.017L444.084 579.082C405.42 629.396 373.174 684.858 348.548 744.242L289.325 719.684C316.127 655.052 351.209 594.722 393.248 540.017ZM235.72 920.166C231.287 954.149 229 988.808 229 1024C229 1059.19 231.287 1093.85 235.72 1127.83L299.294 1119.54C295.219 1088.3 293.113 1056.41 293.113 1024C293.113 991.588 295.219 959.7 299.294 928.458L235.72 920.166ZM289.325 1328.32L348.548 1303.76C373.174 1363.14 405.42 1418.6 444.084 1468.92L393.247 1507.98C351.209 1453.28 316.127 1392.95 289.325 1328.32ZM540.017 1654.75L579.082 1603.92C629.396 1642.58 684.858 1674.83 744.242 1699.45L719.684 1758.68C655.052 1731.87 594.722 1696.79 540.017 1654.75ZM920.166 1812.28L928.458 1748.71C959.7 1752.78 991.588 1754.89 1024 1754.89C1056.41 1754.89 1088.3 1752.78 1119.54 1748.71L1127.83 1812.28C1093.85 1816.71 1059.19 1819 1024 1819C988.808 1819 954.149 1816.71 920.166 1812.28ZM1328.32 1758.68L1303.76 1699.45C1363.14 1674.83 1418.6 1642.58 1468.92 1603.92L1507.98 1654.75C1453.28 1696.79 1392.95 1731.87 1328.32 1758.68ZM1654.75 1507.98L1603.92 1468.92C1642.58 1418.6 1674.83 1363.14 1699.45 1303.76L1758.68 1328.32C1731.87 1392.95 1696.79 1453.28 1654.75 1507.98Z" fill="#F3B235"/>
</svg>
