<svg width="2048" height="2048" viewBox="0 0 2048 2048" fill="none" xmlns="http://www.w3.org/2000/svg">
<path d="M703.863 1693.99V1921H1262.39V1713.55C1262.39 1659.44 1282.83 1607.34 1319.61 1567.67L1460.22 1416.03C1519.22 1352.41 1552 1268.84 1552 1182.06V795.907C1552 744.992 1510.74 703.717 1459.85 703.717C1408.96 703.717 1367.7 744.992 1367.7 795.907V1094.11C1367.7 1105.02 1358.86 1113.87 1347.96 1113.87C1337.05 1113.87 1328.21 1105.02 1328.21 1094.11V327.431C1328.21 274.438 1285.27 231.478 1232.3 231.478C1179.33 231.478 1136.39 274.338 1136.39 327.332V877.798C1136.39 888.708 1127.55 897.504 1116.65 897.504C1105.74 897.504 1096.9 888.659 1096.9 877.749V220.19C1096.9 169.275 1055.65 128 1004.75 128C953.862 128 912.606 169.275 912.606 220.19V876.808C912.606 888.238 903.345 897.504 891.92 897.504C880.495 897.504 871.234 888.238 871.234 876.808V302.032C871.234 250.597 829.556 208.901 778.145 208.901C726.734 208.901 685.057 250.597 685.057 302.032V876.808C685.057 888.238 675.795 897.504 664.371 897.504C652.946 897.504 643.684 888.238 643.684 876.808V519.337C643.684 478.813 610.848 445.961 570.342 445.961C529.836 445.961 497 478.813 497 519.337V1161.93C497 1263.11 526.79 1362.04 582.65 1446.38L668.187 1575.52C691.455 1610.65 703.863 1651.85 703.863 1693.99Z" fill="#F3B235"/>
</svg>
