<svg width="2048" height="2048" viewBox="0 0 2048 2048" fill="none" xmlns="http://www.w3.org/2000/svg">
<path d="M1313.44 380.958L1384.65 337.79L1438.72 431.458L1367.52 474.626L1313.44 380.958Z" fill="#F3B235"/>
<path d="M1627 317.311L1552.92 362.223L1498.84 268.555L1570.94 224.844L1627 317.311Z" fill="#F3B235"/>
<path d="M1199.25 450.192L1253.32 543.86L562.545 962.66C516.72 990.443 516.721 1056.93 562.545 1084.72L1247.39 1499.92L1193.31 1593.59L506.485 1177.18C391.229 1107.31 391.229 940.07 506.485 870.193L1199.25 450.192Z" fill="#F3B235"/>
<path d="M1307.51 1662.82L1378.71 1705.99L1432.79 1612.32L1361.59 1569.16L1307.51 1662.82Z" fill="#F3B235"/>
<path d="M1546.99 1681.56L1492.91 1775.23L1570.94 1822.53L1627 1730.07L1546.99 1681.56Z" fill="#F3B235"/>
</svg>
