<svg width="2048" height="2048" viewBox="0 0 2048 2048" fill="none" xmlns="http://www.w3.org/2000/svg">
<path fill-rule="evenodd" clip-rule="evenodd" d="M1334.21 1772.2L1302.21 1694.86C1387.65 1659.51 1467.78 1607.09 1537.43 1537.43C1607.09 1467.77 1659.51 1387.65 1694.87 1302.21L1772.21 1334.2C1732.72 1429.63 1674.19 1519.04 1596.62 1596.62C1519.05 1674.19 1429.64 1732.72 1334.21 1772.2ZM1772.21 714.794L1694.87 746.793C1659.51 661.351 1607.09 581.225 1537.43 511.566C1467.78 441.908 1387.65 389.487 1302.21 354.136L1334.21 276.795C1429.64 316.278 1519.05 374.807 1596.62 452.382C1674.19 529.956 1732.72 619.363 1772.21 714.794ZM714.797 276.795C619.367 316.278 529.959 374.807 452.385 452.382C374.81 529.956 316.281 619.363 276.798 714.794L354.139 746.793C389.49 661.351 441.911 581.225 511.569 511.566C581.228 441.908 661.354 389.487 746.796 354.136L714.797 276.795ZM276.798 1334.2L354.139 1302.2C389.49 1387.65 441.911 1467.77 511.569 1537.43C581.228 1607.09 661.354 1659.51 746.796 1694.86L714.797 1772.2C619.367 1732.72 529.959 1674.19 452.385 1596.62C374.81 1519.04 316.281 1429.63 276.798 1334.2Z" fill="#F3B235"/>
<path fill-rule="evenodd" clip-rule="evenodd" d="M1835 1566.02C1800.11 1618.12 1759.65 1667.6 1713.63 1713.63C1667.6 1759.65 1618.12 1800.11 1566.02 1835L1519.44 1765.45C1567.04 1733.58 1612.29 1696.59 1654.44 1654.44C1696.59 1612.29 1733.58 1567.04 1765.45 1519.44L1835 1566.02ZM482.982 1835L529.556 1765.45C481.959 1733.58 436.706 1696.59 394.559 1654.44C352.412 1612.29 315.42 1567.04 283.545 1519.44L214 1566.02C248.893 1618.12 289.351 1667.6 335.374 1713.63C381.398 1759.65 430.879 1800.11 482.982 1835ZM214 482.982L283.545 529.556C315.42 481.96 352.412 436.706 394.559 394.559C436.705 352.412 481.959 315.42 529.556 283.545L482.982 214C430.879 248.893 381.398 289.351 335.374 335.374C289.351 381.398 248.893 430.879 214 482.982ZM1566.02 214C1618.12 248.893 1667.6 289.351 1713.63 335.374C1759.65 381.398 1800.11 430.879 1835 482.982L1765.45 529.556C1733.58 481.959 1696.59 436.705 1654.44 394.559C1612.29 352.412 1567.04 315.42 1519.44 283.545L1566.02 214Z" fill="#F3B235"/>
<path fill-rule="evenodd" clip-rule="evenodd" d="M1024.5 1615.97C1351.17 1615.97 1615.98 1351.16 1615.98 1024.5C1615.98 697.833 1351.17 433.019 1024.5 433.019C697.838 433.019 433.025 697.833 433.025 1024.5C433.025 1351.16 697.838 1615.97 1024.5 1615.97ZM1024.5 1755.47C1428.21 1755.47 1755.48 1428.2 1755.48 1024.5C1755.48 620.789 1428.21 293.52 1024.5 293.52C620.795 293.52 293.526 620.789 293.526 1024.5C293.526 1428.2 620.795 1755.47 1024.5 1755.47Z" fill="#F3B235"/>
<path fill-rule="evenodd" clip-rule="evenodd" d="M1024.51 1197.48C1120.05 1197.48 1197.49 1120.03 1197.49 1024.5C1197.49 928.963 1120.05 851.518 1024.51 851.518C928.979 851.518 851.534 928.963 851.534 1024.5C851.534 1120.03 928.979 1197.48 1024.51 1197.48ZM1024.51 1336.98C1197.09 1336.98 1336.99 1197.07 1336.99 1024.5C1336.99 851.92 1197.09 712.018 1024.51 712.018C851.936 712.018 712.034 851.92 712.034 1024.5C712.034 1197.07 851.936 1336.98 1024.51 1336.98Z" fill="#F3B235"/>
</svg>
