<svg width="2048" height="2048" viewBox="0 0 2048 2048" fill="none" xmlns="http://www.w3.org/2000/svg">
<path d="M105.024 918.499V1131.17L69 1131.17V918.499H105.024Z" fill="#F3B235"/>
<path d="M174.029 916.821V1129.5H138.005V916.82L174.029 916.821Z" fill="#F3B235"/>
<path d="M349.116 918.499V1131.17L207.039 918.499L349.116 918.499Z" fill="#F3B235"/>
<path d="M206.61 1130.59V989.095L302.526 1130.59L206.61 1130.59Z" fill="#F3B235"/>
<path d="M519.381 918.347V1059.84L423.464 918.347L519.381 918.347Z" fill="#F3B235"/>
<path d="M690.362 918.347V1059.84L594.446 918.347L690.362 918.347Z" fill="#F3B235"/>
<path d="M1649.09 1128.77V987.274L1745.01 1128.77L1649.09 1128.77Z" fill="#F3B235"/>
<path d="M861.344 918.347V1059.84L765.427 918.347L861.344 918.347Z" fill="#F3B235"/>
<path d="M520.13 1129.5L377.717 1129.5V916.82L520.13 1129.5Z" fill="#F3B235"/>
<path d="M861.865 1129.5L719.788 1129.5V916.82L861.865 1129.5Z" fill="#F3B235"/>
<path d="M1274.03 1129.35H1307.5V916.82H1274.03V1129.35Z" fill="#F3B235"/>
<path d="M1376.51 916.678V1129.35H1340.48V916.678L1376.51 916.678Z" fill="#F3B235"/>
<path d="M1445.55 915V1127.67H1409.52V915H1445.55Z" fill="#F3B235"/>
<path d="M1478.53 916.678V1129.35L1620.61 1129.35L1478.53 916.678Z" fill="#F3B235"/>
<path d="M1649.24 915.001L1791.65 915.001V1127.68L1649.24 915.001Z" fill="#F3B235"/>
<path d="M1932 1022.65L1824.24 916.526H1871.74L1979.5 1022.65L1871.74 1128.77H1824.24L1932 1022.65Z" fill="#F3B235"/>
<path d="M935.908 920.178V1132.85L899.884 1132.85V920.178H935.908Z" fill="#F3B235"/>
<path d="M1004.91 918.499V1131.17H968.889V918.499L1004.91 918.499Z" fill="#F3B235"/>
<path d="M1180 920.178V1132.85L1037.92 920.177L1180 920.178Z" fill="#F3B235"/>
<path d="M1037.49 1132.27V990.773L1133.41 1132.27L1037.49 1132.27Z" fill="#F3B235"/>
<path d="M1211 1130.59H1244.47V918.059H1211V1130.59Z" fill="#F3B235"/>
</svg>
