<svg width="2048" height="2048" viewBox="0 0 2048 2048" fill="none" xmlns="http://www.w3.org/2000/svg">
<path fill-rule="evenodd" clip-rule="evenodd" d="M1311.77 917.994C1311.77 880.204 1304.32 842.784 1289.86 807.87C1275.4 772.957 1254.2 741.234 1227.48 714.512C1200.76 687.79 1169.04 666.594 1134.12 652.132C1099.21 637.67 1061.79 630.227 1024 630.227C986.211 630.227 948.791 637.67 913.878 652.132C878.965 666.594 847.242 687.79 820.52 714.512C793.799 741.234 772.602 772.957 758.141 807.87C743.679 842.784 736.236 880.204 736.236 917.994L610.073 917.994C610.073 863.636 620.78 809.81 641.581 759.589C662.383 709.369 692.873 663.738 731.31 625.301C769.746 586.863 815.377 556.374 865.598 535.572C915.818 514.77 969.643 504.063 1024 504.063C1078.36 504.063 1132.18 514.77 1182.4 535.572C1232.62 556.374 1278.26 586.863 1316.69 625.301C1355.13 663.738 1385.62 709.369 1406.42 759.589C1427.22 809.81 1437.93 863.636 1437.93 917.994H1311.77Z" fill="#F3B235"/>
<path d="M610.073 917.994C610.073 972.352 620.779 1026.18 641.581 1076.4C662.382 1126.62 692.872 1172.25 731.309 1210.69C769.746 1249.12 815.377 1279.61 865.597 1300.42C915.817 1321.22 969.642 1331.93 1024 1331.93C1078.36 1331.93 1132.18 1321.22 1182.4 1300.42C1232.62 1279.61 1278.25 1249.12 1316.69 1210.69C1355.13 1172.25 1385.62 1126.62 1406.42 1076.4C1427.22 1026.18 1437.93 972.352 1437.93 917.994H610.073Z" fill="#F3B235"/>
<path fill-rule="evenodd" clip-rule="evenodd" d="M1304.47 498.243C1221.45 442.772 1123.85 413.164 1024 413.164C924.159 413.164 826.557 442.772 743.539 498.243C660.521 553.714 595.816 632.558 557.607 724.803C519.398 817.048 509.401 918.552 528.88 1016.48C548.359 1114.41 596.439 1204.36 667.039 1274.96L577.829 1364.17C489.583 1275.93 429.488 1163.49 405.141 1041.09C380.794 918.692 393.29 791.821 441.048 676.522C488.806 561.223 569.681 462.676 673.446 393.341C777.211 324.007 899.206 287 1024 287C1148.8 287 1270.8 324.007 1374.56 393.341C1478.33 462.675 1559.2 561.223 1606.96 676.521C1654.72 791.82 1667.21 918.692 1642.87 1041.09C1618.52 1163.49 1558.43 1275.92 1470.18 1364.17L1380.97 1274.96C1451.57 1204.36 1499.65 1114.41 1519.13 1016.48C1538.61 918.552 1528.61 817.048 1490.4 724.802C1452.19 632.557 1387.49 553.714 1304.47 498.243Z" fill="#F3B235"/>
<path fill-rule="evenodd" clip-rule="evenodd" d="M625.747 1514.03C743.63 1592.79 882.223 1634.84 1024 1634.84C1165.78 1634.84 1304.37 1592.79 1422.25 1514.03C1540.14 1435.26 1632.01 1323.3 1686.27 1192.32C1740.53 1061.33 1754.72 917.199 1727.06 778.145C1699.4 639.092 1631.13 511.363 1530.88 411.111L1620.09 321.899C1737.99 439.796 1818.27 590.005 1850.8 753.532C1883.33 917.059 1866.63 1086.56 1802.83 1240.6C1739.03 1394.64 1630.98 1526.3 1492.35 1618.93C1353.72 1711.56 1190.73 1761 1024 1761C857.271 1761 694.285 1711.56 555.655 1618.93C417.024 1526.3 308.975 1394.64 245.17 1240.6C181.365 1086.56 164.671 917.06 197.198 753.533C229.725 590.006 310.013 439.796 427.909 321.9L517.12 411.111C416.868 511.363 348.596 639.092 320.937 778.146C293.278 917.2 307.474 1061.33 361.73 1192.32C415.985 1323.3 507.864 1435.26 625.747 1514.03Z" fill="#F3B235"/>
</svg>
