<svg width="2048" height="2048" viewBox="0 0 2048 2048" fill="none" xmlns="http://www.w3.org/2000/svg">
<path d="M672.589 948.856H1375.41V1099.46H672.589V948.856Z" fill="#F3B235"/>
<path fill-rule="evenodd" clip-rule="evenodd" d="M474.534 558.063L205.715 1023.67L614.259 1731.29H1151.9L1050.45 1555.58H715.702L408.602 1023.67L575.978 733.768L474.534 558.063ZM1328.7 1555.58H1329.9L1637 1023.67L1329.9 491.758L715.702 491.758L715.1 492.801L613.657 317.095L614.259 316.053L1431.35 316.053L1839.89 1023.67L1431.35 1731.29H1430.14L1328.7 1555.58Z" fill="#F3B235"/>
<path d="M207.852 1320.35L443.799 1732H207.852V1320.35Z" fill="#F3B235"/>
<path d="M1842.28 1320.35L1606.34 1732H1842.28V1320.35Z" fill="#F3B235"/>
</svg>
