<svg width="2048" height="2048" viewBox="0 0 2048 2048" fill="none" xmlns="http://www.w3.org/2000/svg">
<path fill-rule="evenodd" clip-rule="evenodd" d="M1262.61 1024C1262.61 976.807 1248.62 930.674 1222.4 891.435C1196.18 852.196 1158.91 821.613 1115.31 803.553C1071.71 785.493 1023.74 780.768 977.45 789.975C931.164 799.182 888.648 821.907 855.278 855.277C821.908 888.647 799.183 931.163 789.976 977.449C780.769 1023.73 785.494 1071.71 803.554 1115.31C821.614 1158.91 852.197 1196.18 891.436 1222.4C930.675 1248.61 976.808 1262.61 1024 1262.61V1367.22C956.117 1367.22 889.759 1347.09 833.317 1309.38C776.874 1271.66 732.883 1218.06 706.905 1155.34C680.927 1092.63 674.13 1023.62 687.374 957.04C700.617 890.462 733.306 829.306 781.306 781.305C829.306 733.305 890.463 700.616 957.041 687.373C1023.62 674.129 1092.63 680.926 1155.35 706.904C1218.06 732.882 1271.66 776.873 1309.38 833.316C1347.09 889.758 1367.22 956.117 1367.22 1024H1262.61Z" fill="#F3B235"/>
<path fill-rule="evenodd" clip-rule="evenodd" d="M1256.56 675.952C1187.72 629.957 1106.79 605.407 1024 605.407V500.795C1127.48 500.795 1228.64 531.48 1314.68 588.97C1400.72 646.461 1467.78 728.174 1507.38 823.777C1546.98 919.38 1557.34 1024.58 1537.15 1126.07C1516.97 1227.56 1467.13 1320.79 1393.96 1393.96C1320.79 1467.13 1227.57 1516.96 1126.07 1537.15C1024.58 1557.34 919.384 1546.98 823.781 1507.38C728.179 1467.78 646.465 1400.71 588.975 1314.67C531.485 1228.63 500.799 1127.48 500.799 1024H605.412C605.412 1106.79 629.962 1187.72 675.957 1256.55C721.952 1325.39 787.327 1379.04 863.815 1410.73C940.302 1442.41 1024.47 1450.7 1105.67 1434.55C1186.86 1418.39 1261.45 1378.53 1319.99 1319.99C1378.53 1261.45 1418.4 1186.86 1434.55 1105.66C1450.7 1024.46 1442.41 940.298 1410.73 863.81C1379.05 787.323 1325.4 721.948 1256.56 675.952Z" fill="#F3B235"/>
<path fill-rule="evenodd" clip-rule="evenodd" d="M693.776 1518.22C791.523 1583.53 906.441 1618.39 1024 1618.39V1723C885.751 1723 750.607 1682 635.657 1605.2C520.707 1528.39 431.114 1419.22 378.208 1291.5C325.303 1163.77 311.46 1023.22 338.431 887.632C365.402 752.039 431.976 627.49 529.733 529.733C627.49 431.976 752.039 365.402 887.632 338.431C1023.22 311.46 1163.77 325.303 1291.5 378.209C1419.22 431.114 1528.39 520.707 1605.2 635.657C1682 750.607 1723 885.751 1723 1024L1618.39 1024C1618.39 906.442 1583.53 791.523 1518.22 693.776C1452.9 596.03 1360.07 519.845 1251.46 474.858C1142.85 429.87 1023.34 418.099 908.041 441.034C792.741 463.968 686.831 520.578 603.705 603.705C520.578 686.831 463.968 792.741 441.034 908.041C418.099 1023.34 429.87 1142.85 474.858 1251.46C519.845 1360.07 596.03 1452.9 693.776 1518.22Z" fill="#F3B235"/>
</svg>
