<svg width="2048" height="2048" viewBox="0 0 2048 2048" fill="none" xmlns="http://www.w3.org/2000/svg">
<path fill-rule="evenodd" clip-rule="evenodd" d="M1023.5 1727.12C1411.55 1727.12 1726.12 1412.55 1726.12 1024.5C1726.12 636.451 1411.55 321.875 1023.5 321.875C635.451 321.875 320.875 636.451 320.875 1024.5C320.875 1412.55 635.451 1727.12 1023.5 1727.12ZM1023.5 1902C1508.13 1902 1901 1509.13 1901 1024.5C1901 539.87 1508.13 147 1023.5 147C538.87 147 146 539.87 146 1024.5C146 1509.13 538.87 1902 1023.5 1902Z" fill="#F3B235"/>
<path d="M1873.32 918.326V1130.67L179.925 1130.67L179.925 918.326L1873.32 918.326Z" fill="#F3B235"/>
</svg>
