<svg width="2048" height="2048" viewBox="0 0 2048 2048" fill="none" xmlns="http://www.w3.org/2000/svg">
<path d="M809.953 1822.82C967.945 1865.15 1134.94 1859.68 1289.83 1807.11C1444.71 1754.53 1580.53 1657.21 1680.1 1527.44C1779.67 1397.68 1838.53 1241.3 1849.23 1078.09C1859.92 914.872 1821.98 752.15 1740.2 610.499C1658.42 468.848 1536.47 354.629 1389.77 282.287C1243.07 209.944 1078.22 182.726 916.051 204.076C753.885 225.425 601.692 294.383 478.717 402.228C355.742 510.074 267.509 651.964 225.175 809.955L305.057 831.359C343.158 689.167 422.567 561.466 533.245 464.405C643.922 367.344 780.896 305.282 926.845 286.068C1072.79 266.853 1221.16 291.349 1353.19 356.458C1485.22 421.566 1594.97 524.363 1668.58 651.849C1742.18 779.335 1776.33 925.784 1766.7 1072.68C1757.07 1219.57 1704.1 1360.31 1614.49 1477.1C1524.87 1593.89 1402.64 1681.48 1263.24 1728.8C1123.85 1776.11 973.55 1781.03 831.357 1742.93L809.953 1822.82Z" fill="#F3B235"/>
<path d="M809.96 1822.82C879.77 1841.53 951.731 1851 1024 1851V1685.6C966.185 1685.6 908.617 1678.02 852.769 1663.06L809.96 1822.82Z" fill="#F3B235"/>
<path d="M1238.04 1822.82C1307.85 1804.12 1374.91 1776.34 1437.5 1740.2L1354.8 1596.96C1304.73 1625.87 1251.08 1648.09 1195.24 1663.06L1238.04 1822.82Z" fill="#F3B235"/>
<path d="M1608.78 1608.78C1659.88 1557.67 1704.07 1500.09 1740.21 1437.5L1596.97 1354.8C1568.06 1404.87 1532.71 1450.94 1491.82 1491.82L1608.78 1608.78Z" fill="#F3B235"/>
<path d="M1822.82 1238.05C1841.53 1168.24 1851 1096.28 1851 1024.01L1685.6 1024.01C1685.6 1081.82 1678.02 1139.39 1663.06 1195.24L1822.82 1238.05Z" fill="#F3B235"/>
<path d="M1740.2 610.504C1667.62 484.784 1563.22 380.386 1437.5 307.802C1311.78 235.217 1169.17 197.005 1024 197.005L1024 362.405C1140.13 362.405 1254.22 392.974 1354.8 451.042C1455.38 509.109 1538.89 592.628 1596.96 693.203L1740.2 610.504Z" fill="#F3B235"/>
<path d="M610.5 307.799C484.78 380.383 380.381 484.781 307.797 610.501C235.213 736.22 197 878.831 197 1024L362.4 1024C362.4 907.865 392.97 793.776 451.038 693.201C509.105 592.625 592.624 509.106 693.2 451.039L610.5 307.799Z" fill="#F3B235"/>
<path fill-rule="evenodd" clip-rule="evenodd" d="M1023.99 1241.6C1144.17 1241.6 1241.59 1144.18 1241.59 1024C1241.59 903.828 1144.17 806.408 1023.99 806.408C903.818 806.408 806.397 903.828 806.397 1024C806.397 1144.18 903.818 1241.6 1023.99 1241.6ZM1023.99 1357.68C1208.28 1357.68 1357.67 1208.29 1357.67 1024C1357.67 839.717 1208.28 690.323 1023.99 690.323C839.706 690.323 690.312 839.717 690.312 1024C690.312 1208.29 839.706 1357.68 1023.99 1357.68Z" fill="#F3B235"/>
</svg>
