<svg width="2048" height="2048" viewBox="0 0 2048 2048" fill="none" xmlns="http://www.w3.org/2000/svg">
<path fill-rule="evenodd" clip-rule="evenodd" d="M1023.5 1763.27C1431.51 1763.27 1762.27 1432.51 1762.27 1024.5C1762.27 616.486 1431.51 285.726 1023.5 285.726C615.486 285.726 284.726 616.486 284.726 1024.5C284.726 1432.51 615.486 1763.27 1023.5 1763.27ZM1023.5 1835C1471.13 1835 1834 1472.13 1834 1024.5C1834 576.873 1471.13 214 1023.5 214C575.873 214 213 576.873 213 1024.5C213 1472.13 575.873 1835 1023.5 1835Z" fill="#F3B235"/>
<path fill-rule="evenodd" clip-rule="evenodd" d="M968.527 378.876C656.15 405.128 406.827 652.997 378.314 964.726H968.527V378.876ZM968.527 1079.49H377.894C404.281 1393.46 654.554 1643.73 968.527 1670.12L968.527 1079.49ZM1083.29 1669.7V1079.49H1669.14C1642.88 1391.86 1395.02 1641.19 1083.29 1669.7ZM1083.29 964.726V379.295C1393.42 407.663 1640.35 654.59 1668.72 964.726H1083.29Z" fill="#F3B235"/>
</svg>
