<svg width="2048" height="2048" viewBox="0 0 2048 2048" fill="none" xmlns="http://www.w3.org/2000/svg">
<path d="M1859 1023.5C1859 858.254 1810 696.719 1718.19 559.321C1626.39 421.924 1495.9 314.836 1343.23 251.599C1190.56 188.362 1022.57 171.816 860.502 204.054C698.431 236.292 549.559 315.866 432.713 432.713C315.866 549.559 236.292 698.431 204.054 860.502C171.816 1022.57 188.362 1190.56 251.599 1343.23C314.836 1495.9 421.924 1626.39 559.321 1718.19C696.719 1810 858.254 1859 1023.5 1859V1387.69C951.471 1387.69 881.06 1366.33 821.17 1326.31C761.28 1286.29 714.601 1229.41 687.037 1162.87C659.473 1096.32 652.26 1023.1 666.313 952.451C680.365 881.806 715.05 816.914 765.982 765.982C816.914 715.05 881.806 680.365 952.451 666.313C1023.1 652.26 1096.32 659.473 1162.87 687.037C1229.41 714.601 1286.29 761.28 1326.31 821.17C1366.33 881.06 1387.69 951.471 1387.69 1023.5H1859Z" fill="#F3B235"/>
<path fill-rule="evenodd" clip-rule="evenodd" d="M1023.5 1769.8C1435.67 1769.8 1769.8 1435.67 1769.8 1023.5C1769.8 611.33 1435.67 277.2 1023.5 277.2C611.33 277.2 277.2 611.33 277.2 1023.5C277.2 1435.67 611.33 1769.8 1023.5 1769.8ZM1023.5 1476.88C773.103 1476.88 570.116 1273.9 570.116 1023.5C570.116 773.103 773.103 570.116 1023.5 570.116C1273.9 570.116 1476.88 773.103 1476.88 1023.5C1476.88 1273.9 1273.9 1476.88 1023.5 1476.88ZM1023.5 1859C1484.93 1859 1859 1484.93 1859 1023.5C1859 562.066 1484.93 188 1023.5 188C562.066 188 188 562.066 188 1023.5C188 1484.93 562.066 1859 1023.5 1859ZM1023.5 1387.69C822.366 1387.69 659.315 1224.63 659.315 1023.5C659.315 822.366 822.366 659.315 1023.5 659.315C1224.63 659.315 1387.69 822.366 1387.69 1023.5C1387.69 1224.63 1224.63 1387.69 1023.5 1387.69Z" fill="#F3B235"/>
</svg>
