<svg width="2048" height="2048" viewBox="0 0 2048 2048" fill="none" xmlns="http://www.w3.org/2000/svg">
<path d="M324.506 1748.61C224.817 1769.32 156.428 1650.88 224.216 1574.91L550.842 1208.88L612.46 1220.98C734.105 1244.87 857.463 1257.02 980.851 1257.44V1612.2L324.506 1748.61Z" fill="#F3B235"/>
<path d="M1062.7 1611.27L1723.49 1748.61C1823.18 1769.32 1891.57 1650.88 1823.78 1574.91L1486.26 1196.66L1362.44 1220.98C1263.36 1240.44 1163.14 1252.11 1062.7 1256V1611.27Z" fill="#F3B235"/>
<path d="M1062.7 1058C1156.67 1054.36 1250.45 1043.91 1343.28 1026.64C1342.55 1024.79 1341.88 1022.92 1341.25 1021.02L1124.29 363.447C1113.32 330.196 1089.94 308.38 1062.7 298V1058Z" fill="#F3B235"/>
<path d="M980.851 299.813C955.526 310.811 934.078 332.022 923.71 363.447L706.749 1021.02C704.807 1026.91 702.357 1032.6 699.433 1038.02C792.725 1051.98 886.779 1059.12 980.851 1059.44L980.851 299.813Z" fill="#F3B235"/>
</svg>
