<svg width="2048" height="2048" viewBox="0 0 2048 2048" fill="none" xmlns="http://www.w3.org/2000/svg">
<path fill-rule="evenodd" clip-rule="evenodd" d="M271.84 1024.5C271.84 1439.63 608.37 1776.16 1023.5 1776.16C1438.63 1776.16 1775.16 1439.63 1775.16 1024.5C1775.16 609.37 1438.63 272.84 1023.5 272.84C608.37 272.84 271.84 609.37 271.84 1024.5ZM1023.5 183C558.752 183 182 559.752 182 1024.5C182 1489.25 558.752 1866 1023.5 1866C1488.25 1866 1865 1489.25 1865 1024.5C1865 559.752 1488.25 183 1023.5 183Z" fill="#F3B235"/>
<path fill-rule="evenodd" clip-rule="evenodd" d="M363.81 971.006C362.399 988.651 361.68 1006.49 361.68 1024.5C361.68 1390.01 657.987 1686.32 1023.5 1686.32C1041.51 1686.32 1059.35 1685.6 1076.99 1684.19L363.81 971.006ZM1455.47 1525.92C1381.95 1589.32 1294.33 1636.82 1197.96 1663.08L384.917 850.035C411.184 753.667 458.682 666.055 522.075 592.535L1455.47 1525.92ZM1662.08 1198.96C1635.82 1295.33 1588.32 1382.95 1524.92 1456.47L591.535 523.075C665.055 459.682 752.667 412.184 849.035 385.917L1662.08 1198.96ZM970.006 364.81C987.651 363.399 1005.49 362.68 1023.5 362.68C1389.01 362.68 1685.32 658.987 1685.32 1024.5C1685.32 1042.51 1684.6 1060.35 1683.19 1077.99L970.006 364.81Z" fill="#F3B235"/>
</svg>
