<svg width="2048" height="2048" viewBox="0 0 2048 2048" fill="none" xmlns="http://www.w3.org/2000/svg">
<path d="M1715.98 1023.5C1715.98 1174.46 1671.09 1322.03 1586.97 1447.55C1502.86 1573.07 1383.31 1670.91 1243.43 1728.68C1103.56 1786.45 949.642 1801.56 801.151 1772.11C652.66 1742.66 516.263 1669.97 409.207 1563.22C302.152 1456.47 229.246 1320.47 199.709 1172.41C170.172 1024.35 185.332 870.877 243.27 731.406C301.208 591.935 399.323 472.727 525.207 388.857C651.091 304.987 799.091 260.222 950.491 260.222V412.877C829.371 412.877 710.971 448.69 610.264 515.786C509.556 582.882 431.065 678.248 384.714 789.825C338.363 901.401 326.236 1024.18 349.865 1142.63C373.495 1261.08 431.819 1369.88 517.464 1455.28C603.109 1540.67 712.227 1598.83 831.019 1622.39C949.812 1645.95 1072.94 1633.86 1184.84 1587.64C1296.74 1541.42 1392.39 1463.16 1459.68 1362.74C1526.97 1262.33 1562.88 1144.27 1562.88 1023.5H1715.98Z" fill="#F3B235"/>
<path d="M1638.55 729.251L1862 1030.14H1415.1L1638.55 729.251Z" fill="#F3B235"/>
</svg>
