<svg width="2048" height="2048" viewBox="0 0 2048 2048" fill="none" xmlns="http://www.w3.org/2000/svg">
<path d="M1320.41 1023.5C1320.41 1187.48 1187.48 1320.41 1023.5 1320.41C859.52 1320.41 726.59 1187.48 726.59 1023.5C726.59 859.522 859.52 726.592 1023.5 726.592C1187.48 726.592 1320.41 859.522 1320.41 1023.5Z" fill="#F3B235"/>
<path d="M1779 1023.5C1779 1172.92 1734.69 1318.99 1651.68 1443.23C1568.66 1567.47 1450.67 1664.31 1312.62 1721.49C1174.57 1778.67 1022.66 1793.63 876.109 1764.48C729.557 1735.33 594.94 1663.38 489.281 1557.72C383.623 1452.06 311.668 1317.44 282.517 1170.89C253.366 1024.34 268.327 872.432 325.509 734.383C382.691 596.333 479.526 478.34 603.767 395.325C728.008 312.309 874.076 268 1023.5 268V494.65C918.904 494.65 816.656 525.666 729.687 583.777C642.718 641.888 574.934 724.483 534.907 821.118C494.879 917.752 484.406 1024.09 504.812 1126.67C525.218 1229.26 575.586 1323.49 649.547 1397.45C723.508 1471.41 817.74 1521.78 920.327 1542.19C1022.91 1562.59 1129.25 1552.12 1225.88 1512.09C1322.52 1472.07 1405.11 1404.28 1463.22 1317.31C1521.33 1230.34 1552.35 1128.1 1552.35 1023.5H1779Z" fill="#F3B235"/>
</svg>
