<svg width="2048" height="2048" viewBox="0 0 2048 2048" fill="none" xmlns="http://www.w3.org/2000/svg">
<path d="M1471.62 426.411C1346.82 332.597 1191.65 277 1023.5 277C855.348 277 700.182 332.597 575.38 426.411L1023.5 874.532L1471.62 426.411Z" fill="#F3B235"/>
<path d="M874.535 1023.5L426.414 575.376C332.598 700.179 277 855.346 277 1023.5C277 1191.65 332.597 1346.82 426.411 1471.62L874.535 1023.5Z" fill="#F3B235"/>
<path d="M575.377 1620.59L1023.5 1172.46L1471.62 1620.59C1346.82 1714.4 1191.65 1770 1023.5 1770C855.347 1770 700.179 1714.4 575.377 1620.59Z" fill="#F3B235"/>
<path d="M1172.47 1023.5L1620.59 575.377C1714.4 700.179 1770 855.347 1770 1023.5C1770 1191.65 1714.4 1346.82 1620.59 1471.62L1172.47 1023.5Z" fill="#F3B235"/>
</svg>
