<svg width="2048" height="2048" viewBox="0 0 2048 2048" fill="none" xmlns="http://www.w3.org/2000/svg">
<path fill-rule="evenodd" clip-rule="evenodd" d="M1023.5 1753.85C1426.31 1753.85 1752.85 1427.31 1752.85 1024.5C1752.85 621.693 1426.31 295.154 1023.5 295.154C620.693 295.154 294.154 621.693 294.154 1024.5C294.154 1427.31 620.693 1753.85 1023.5 1753.85ZM1023.5 1875C1493.22 1875 1874 1494.22 1874 1024.5C1874 554.782 1493.22 174 1023.5 174C553.782 174 173 554.782 173 1024.5C173 1494.22 553.782 1875 1023.5 1875Z" fill="#F3B235"/>
<path d="M509.797 1167.46L294.143 1259.54L536.451 1671.46L904.758 1824.12L1161.6 1775.65L1050.14 1467.92L674.566 1453.38L643.066 1305.58L509.797 1167.46Z" fill="#F3B235"/>
<path d="M970.183 571.39L909.606 261.236L970.183 241.851L1435.41 353.313L1755.26 663.467V956.659L1658.34 1094.77L1423.3 1380.7L1338.49 1361.31L1302.14 1070.54L1117.99 932.428L1156.76 636.813L970.183 571.39Z" fill="#F3B235"/>
</svg>
