<svg width="2048" height="2048" viewBox="0 0 2048 2048" fill="none" xmlns="http://www.w3.org/2000/svg">
<path d="M724.51 483.866L233.107 1012.9C226.566 1019.94 226.578 1030.84 233.133 1037.87L724.513 1564.66C727.979 1568.38 732.831 1570.49 737.912 1570.49H791.785C801.904 1570.49 810.107 1562.28 810.107 1552.16V1451.39C810.107 1441.27 818.31 1433.07 828.429 1433.07H1808.68C1818.8 1433.07 1827 1424.87 1827 1414.75V633.754C1827 623.635 1818.8 615.432 1808.68 615.432H828.429C818.31 615.432 810.107 607.228 810.107 597.109V496.336C810.107 486.217 801.904 478.014 791.785 478.014H737.935C732.841 478.014 727.977 480.134 724.51 483.866Z" fill="#F3B235"/>
</svg>
