<svg width="2048" height="2048" viewBox="0 0 2048 2048" fill="none" xmlns="http://www.w3.org/2000/svg">
<path fill-rule="evenodd" clip-rule="evenodd" d="M1096.91 1823C1481.91 1788.53 1788.53 1481.91 1823 1096.91H1693.06C1659.49 1410.44 1410.44 1659.49 1096.91 1693.06V1823ZM1096.91 1573.26C1344.66 1540.88 1540.88 1344.66 1573.26 1096.91H1442.48C1412.17 1273.13 1273.13 1412.17 1096.91 1442.48V1573.26ZM946.914 1441.56V1572.55C701.614 1538.14 507.894 1342.93 475.745 1096.91H606.518C636.535 1271.4 773.153 1409.44 946.914 1441.56ZM1096.91 606.518C1271.4 636.535 1409.44 773.153 1441.56 946.914H1572.55C1538.14 701.614 1342.93 507.894 1096.91 475.745V606.518ZM946.914 476.446V607.441C774.874 639.244 639.244 774.874 607.441 946.914H476.446C510.616 703.336 703.336 510.616 946.914 476.446ZM1096.91 355.938C1408.71 389.324 1656.75 635.829 1692.49 946.914H1822.52C1785.78 564.345 1480.19 260.312 1096.91 226V355.938ZM946.914 226.48V356.512C637.551 392.055 392.055 637.551 356.512 946.914H226.48C263.052 566.068 566.068 263.052 946.914 226.48ZM946.914 1692.49V1822.52C564.345 1785.78 260.312 1480.19 226 1096.91H355.938C389.324 1408.71 635.829 1656.75 946.914 1692.49Z" fill="#F3B235"/>
</svg>
