<svg width="2048" height="2048" viewBox="0 0 2048 2048" fill="none" xmlns="http://www.w3.org/2000/svg">
<path fill-rule="evenodd" clip-rule="evenodd" d="M1854 1744L1023.5 305L649.355 953.278L649.414 953.379L650.573 955.388L651.738 957.406L652.908 959.434L654.085 961.472L655.266 963.52L656.454 965.578L657.647 967.644L658.845 969.721L660.049 971.807L661.259 973.903L662.473 976.008L663.694 978.122L664.919 980.246L666.15 982.379L667.387 984.521L668.628 986.672L669.875 988.833L671.127 991.002L672.385 993.181L673.647 995.368L674.915 997.565L676.188 999.77L677.466 1001.98L678.748 1004.21L680.036 1006.44L681.329 1008.68L682.627 1010.93L683.93 1013.19L685.238 1015.45L686.551 1017.73L687.869 1020.01L689.191 1022.3L690.518 1024.6L691.85 1026.91L693.187 1029.22L694.529 1031.55L695.875 1033.88L697.226 1036.22L698.581 1038.57L699.941 1040.93L701.306 1043.29L702.675 1045.66L704.049 1048.05L705.427 1050.43L706.81 1052.83L708.197 1055.23L709.589 1057.64L710.985 1060.06L712.385 1062.49L713.789 1064.92L715.198 1067.36L716.612 1069.81L718.029 1072.27L719.451 1074.73L720.876 1077.2L722.306 1079.68L723.74 1082.16L725.178 1084.66L726.621 1087.16L728.067 1089.66L729.517 1092.17L730.971 1094.69L732.43 1097.22L733.892 1099.75L735.358 1102.29L736.828 1104.84L738.301 1107.39L739.779 1109.95L741.26 1112.52L742.745 1115.09L744.234 1117.67L745.726 1120.26L747.222 1122.85L748.722 1125.45L750.225 1128.05L751.732 1130.67L753.243 1133.28L754.757 1135.91L756.274 1138.54L757.795 1141.17L759.319 1143.81L760.847 1146.46L762.378 1149.11L763.913 1151.77L765.45 1154.44L766.992 1157.11L768.536 1159.78L770.083 1162.46L771.634 1165.15L773.188 1167.84L774.745 1170.54L776.306 1173.24L777.869 1175.95L779.435 1178.67L781.005 1181.39L782.577 1184.11L784.152 1186.84L785.731 1189.57L787.312 1192.31L788.896 1195.06L790.483 1197.81L792.073 1200.56L793.666 1203.32L795.261 1206.09L796.859 1208.86L798.46 1211.63L800.064 1214.41L801.67 1217.19L803.279 1219.98L804.89 1222.77L806.504 1225.57L808.121 1228.37L809.74 1231.17L811.361 1233.98L812.985 1236.8L814.612 1239.62L816.241 1242.44L817.872 1245.27L819.505 1248.1L821.141 1250.93L822.779 1253.77L824.42 1256.61L826.063 1259.46L827.707 1262.31L829.354 1265.16L831.004 1268.02L832.655 1270.88L834.308 1273.74L835.964 1276.61L837.621 1279.48L839.281 1282.36L840.942 1285.24L842.606 1288.12L844.271 1291.01L845.938 1293.9L847.607 1296.79L849.278 1299.68L850.951 1302.58L852.625 1305.48L854.301 1308.39L855.979 1311.29L857.659 1314.2L859.34 1317.12L861.023 1320.03L862.707 1322.95L864.393 1325.87L866.081 1328.8L867.77 1331.72L869.461 1334.65L871.153 1337.58L872.846 1340.52L874.541 1343.46L876.237 1346.39L877.935 1349.34L879.634 1352.28L881.334 1355.23L883.035 1358.17L884.738 1361.12L886.442 1364.08L888.147 1367.03L889.853 1369.99L891.56 1372.94L893.269 1375.9L894.978 1378.87L896.689 1381.83L898.4 1384.8L900.112 1387.76L901.826 1390.73L903.54 1393.7L905.255 1396.67L906.971 1399.65L908.688 1402.62L910.406 1405.6L912.124 1408.58L913.843 1411.55L915.563 1414.53L917.284 1417.51L919.005 1420.5L920.727 1423.48L922.449 1426.46L924.172 1429.45L925.895 1432.44L927.619 1435.42L929.344 1438.41L931.069 1441.4L932.794 1444.39L934.52 1447.38L936.246 1450.37L937.973 1453.36L939.7 1456.35L941.427 1459.35L943.154 1462.34L944.881 1465.33L946.609 1468.33L948.337 1471.32L950.065 1474.32L951.793 1477.31L953.522 1480.3L955.25 1483.3L956.978 1486.29L958.707 1489.29L960.435 1492.28L962.163 1495.28L963.891 1498.27L965.619 1501.27L967.347 1504.26L969.075 1507.25L970.802 1510.25L972.53 1513.24L974.257 1516.23L975.983 1519.22L977.71 1522.21L979.436 1525.21L981.161 1528.2L982.886 1531.18L984.611 1534.17L986.336 1537.16L988.06 1540.15L989.783 1543.13L991.506 1546.12L993.228 1549.1L994.949 1552.09L996.67 1555.07L998.391 1558.05L1000.11 1561.03L1001.83 1564.01L1003.55 1566.98L1005.26 1569.96L1006.98 1572.93L1008.7 1575.91L1010.41 1578.88L1012.13 1581.85L1013.84 1584.82L1015.55 1587.78L1017.26 1590.75L1018.97 1593.71L1020.68 1596.67L1022.39 1599.63L1024.1 1602.59L1025.8 1605.54L1027.51 1608.5L1029.21 1611.45L1030.91 1614.4L1032.61 1617.35L1034.31 1620.29L1036.01 1623.23L1037.71 1626.17L1039.4 1629.11L1041.1 1632.05L1042.79 1634.98L1044.48 1637.91L1046.17 1640.84L1047.86 1643.77L1049.55 1646.69L1051.23 1649.61L1052.92 1652.53L1054.6 1655.44L1056.28 1658.36L1057.96 1661.26L1059.64 1664.17L1061.31 1667.07L1062.99 1669.97L1064.66 1672.87L1066.33 1675.77L1068 1678.66L1069.66 1681.54L1071.33 1684.43L1072.99 1687.31L1074.65 1690.19L1076.31 1693.06L1077.97 1695.93L1079.62 1698.8L1081.28 1701.66L1082.93 1704.52L1084.58 1707.38L1086.22 1710.23L1087.87 1713.08L1089.51 1715.93L1091.15 1718.77L1092.78 1721.6L1094.42 1724.44L1096.05 1727.27L1097.68 1730.09L1099.31 1732.91L1100.94 1735.73L1102.56 1738.54L1104.18 1741.35L1105.71 1744H1854ZM928.82 1744L928.646 1743.7L926.97 1740.8L925.293 1737.89L923.614 1734.98L921.933 1732.07L920.251 1729.15L918.567 1726.23L916.881 1723.31L915.194 1720.39L913.506 1717.47L911.816 1714.54L910.124 1711.61L908.431 1708.67L906.737 1705.74L905.041 1702.8L903.344 1699.86L901.645 1696.91L899.946 1693.97L898.245 1691.02L896.542 1688.07L894.839 1685.12L893.134 1682.17L891.428 1679.21L889.721 1676.25L888.013 1673.3L886.304 1670.33L884.594 1667.37L882.883 1664.41L881.171 1661.44L879.458 1658.47L877.744 1655.5L876.029 1652.53L874.314 1649.56L872.597 1646.58L870.88 1643.61L869.161 1640.63L867.443 1637.65L865.723 1634.67L864.003 1631.69L862.282 1628.71L860.56 1625.73L858.838 1622.74L857.115 1619.76L855.392 1616.77L853.668 1613.78L851.944 1610.8L850.219 1607.81L848.494 1604.82L846.768 1601.83L845.042 1598.84L843.315 1595.85L841.589 1592.86L839.862 1589.86L838.135 1586.87L836.407 1583.88L834.679 1580.88L832.951 1577.89L831.224 1574.9L829.495 1571.9L827.767 1568.91L826.039 1565.91L824.31 1562.92L822.582 1559.92L820.854 1556.93L819.126 1553.93L817.397 1550.94L815.669 1547.95L813.941 1544.95L812.214 1541.96L810.486 1538.96L808.759 1535.97L807.032 1532.98L805.305 1529.99L803.578 1527L801.852 1524L800.127 1521.01L798.401 1518.02L796.676 1515.04L794.952 1512.05L793.228 1509.06L791.504 1506.07L789.781 1503.09L788.059 1500.1L786.337 1497.12L784.616 1494.14L782.895 1491.16L781.175 1488.18L779.456 1485.2L777.738 1482.22L776.02 1479.25L774.303 1476.27L772.587 1473.3L770.872 1470.33L769.158 1467.36L767.445 1464.39L765.732 1461.42L764.021 1458.45L762.31 1455.49L760.601 1452.53L758.893 1449.57L757.185 1446.61L755.479 1443.65L753.774 1440.7L752.07 1437.75L750.368 1434.8L748.666 1431.85L746.966 1428.9L745.267 1425.96L743.57 1423.02L741.873 1420.08L740.178 1417.14L738.485 1414.21L736.793 1411.28L735.102 1408.35L733.413 1405.42L731.726 1402.5L730.04 1399.58L728.355 1396.66L726.672 1393.74L724.991 1390.83L723.311 1387.92L721.634 1385.01L719.957 1382.11L718.283 1379.2L716.61 1376.31L714.939 1373.41L713.27 1370.52L711.603 1367.63L709.938 1364.75L708.274 1361.86L706.613 1358.98L704.953 1356.11L703.296 1353.24L701.641 1350.37L699.987 1347.5L698.336 1344.64L696.687 1341.79L695.04 1338.93L693.395 1336.08L691.752 1333.23L690.112 1330.39L688.474 1327.55L686.838 1324.72L685.204 1321.89L683.573 1319.06L681.944 1316.24L680.318 1313.42L678.694 1310.61L677.072 1307.8L675.453 1304.99L673.836 1302.19L672.222 1299.4L670.611 1296.6L669.002 1293.82L667.396 1291.03L665.792 1288.25L664.191 1285.48L662.593 1282.71L660.998 1279.95L659.405 1277.19L657.815 1274.43L656.228 1271.68L654.644 1268.94L653.063 1266.2L651.485 1263.46L649.909 1260.73L648.337 1258.01L646.767 1255.29L645.201 1252.58L643.638 1249.87L642.078 1247.16L640.52 1244.47L638.967 1241.77L637.416 1239.09L635.868 1236.41L634.324 1233.73L632.783 1231.06L631.245 1228.39L629.71 1225.74L628.179 1223.08L626.652 1220.44L625.127 1217.79L623.606 1215.16L622.089 1212.53L620.575 1209.91L619.064 1207.29L617.558 1204.68L616.054 1202.07L614.554 1199.48L613.058 1196.88L611.566 1194.3L610.077 1191.72L608.592 1189.14L607.111 1186.58L605.633 1184.02L604.16 1181.46L602.69 1178.92L601.224 1176.38L599.762 1173.84L598.304 1171.32L596.849 1168.8L595.399 1166.29L593.953 1163.78L592.511 1161.28L591.073 1158.79L589.639 1156.3L588.209 1153.83L586.783 1151.36L585.361 1148.89L583.944 1146.44L582.531 1143.99L581.122 1141.55L579.717 1139.11L578.317 1136.69L576.921 1134.27L575.529 1131.86L574.142 1129.45L572.759 1127.06L571.381 1124.67L570.007 1122.29L568.638 1119.92L567.274 1117.55L565.913 1115.2L564.558 1112.85L563.207 1110.51L561.861 1108.17L560.91 1106.53L193 1744H928.82Z" fill="#F3B235"/>
</svg>
