<svg width="2048" height="2048" viewBox="0 0 2048 2048" fill="none" xmlns="http://www.w3.org/2000/svg">
<path fill-rule="evenodd" clip-rule="evenodd" d="M1612.49 639.247L1062.97 321.986C1038.85 308.065 1009.15 308.065 985.032 321.986L435.514 639.247C411.401 653.168 396.546 678.896 396.546 706.74V734.161H294V706.74C294 642.261 328.4 582.68 384.241 550.44L933.759 233.18C989.6 200.94 1058.4 200.94 1114.24 233.18L1663.76 550.44C1719.6 582.68 1754 642.261 1754 706.74V734.161H1651.45V706.74C1651.45 678.896 1636.6 653.168 1612.49 639.247ZM396.546 849.754H294V1196.73H396.546V849.754ZM1651.45 849.754H1754V1196.73H1651.45V849.754ZM294 1312.32H396.546V1341.26C396.546 1369.1 411.401 1394.83 435.514 1408.75L985.032 1726.01C1009.15 1739.94 1038.85 1739.94 1062.97 1726.01L1612.49 1408.75C1636.6 1394.83 1651.45 1369.1 1651.45 1341.26V1312.32H1754V1341.26C1754 1405.74 1719.6 1465.32 1663.76 1497.56L1114.24 1814.82C1058.4 1847.06 989.6 1847.06 933.759 1814.82L384.241 1497.56C328.4 1465.32 294 1405.74 294 1341.26V1312.32Z" fill="#F3B235"/>
</svg>
