<svg width="2048" height="2048" viewBox="0 0 2048 2048" fill="none" xmlns="http://www.w3.org/2000/svg">
<path d="M324.743 690.308H214V1067.25H289.196V925.629H324.743C399.938 925.629 436.852 892.781 436.852 832.47V783.467C436.852 723.156 399.938 690.308 324.743 690.308ZM324.743 744.157C348.668 744.157 361.657 752.773 361.657 779.698V836.239C361.657 863.164 348.668 871.78 324.743 871.78H289.196V744.157H324.743Z" fill="#F3B235"/>
<path d="M523.557 777.005C523.557 750.081 538.596 739.849 562.522 739.849C586.448 739.849 601.487 750.081 601.487 777.005V980.555C601.487 1007.48 586.448 1017.71 562.522 1017.71C538.596 1017.71 523.557 1007.48 523.557 980.555V777.005ZM448.361 976.786C448.361 1037.1 488.694 1071.56 562.522 1071.56C636.35 1071.56 676.683 1037.1 676.683 976.786V780.775C676.683 720.464 636.35 686 562.522 686C488.694 686 448.361 720.464 448.361 780.775V976.786Z" fill="#F3B235"/>
<path d="M899.182 1067.25H998.987L1052.31 690.308H986.683L947.718 989.71L910.12 690.308H837.659L801.428 987.556L761.096 690.308H687.951L741.272 1067.25H844.495L871.839 866.395L899.182 1067.25Z" fill="#F3B235"/>
<path d="M1144.92 744.157H1274.8V690.308H1069.72V1067.25H1274.8V1013.4H1144.92V903.013H1248.14V849.163H1144.92V744.157Z" fill="#F3B235"/>
<path d="M1534.68 1067.25C1527.16 1053.25 1526.48 1039.79 1526.48 1021.48V963.324C1526.48 924.014 1514.17 895.474 1476.58 883.088C1510.07 870.703 1525.79 845.394 1525.79 806.622V777.005C1525.79 718.848 1492.3 690.308 1414.37 690.308H1300.89V1067.25H1376.09V913.782H1402.06C1436.24 913.782 1451.28 926.706 1451.28 961.708V1020.94C1451.28 1051.64 1454.02 1057.56 1458.12 1067.25H1534.68ZM1412.32 744.157C1438.98 744.157 1450.6 756.004 1450.6 782.929V820.085C1450.6 850.24 1433.51 859.933 1405.48 859.933H1376.09V744.157H1412.32Z" fill="#F3B235"/>
<path fill-rule="evenodd" clip-rule="evenodd" d="M1441.46 1233.25H214V1152.4H1441.46C1628.52 1152.4 1780.17 1304.14 1780.17 1491.32H1699.38C1699.38 1348.79 1583.9 1233.25 1441.46 1233.25Z" fill="#F3B235"/>
<path d="M1640.34 1497.54C1640.34 1494.11 1643.12 1491.32 1646.55 1491.32H1826.79C1830.22 1491.32 1833 1494.11 1833 1497.54V1544.88C1833 1546.43 1832.42 1547.93 1831.38 1549.07L1741.26 1647.97C1738.8 1650.68 1734.54 1650.68 1732.08 1647.97L1641.96 1549.07C1640.91 1547.93 1640.34 1546.43 1640.34 1544.88V1497.54Z" fill="#F3B235"/>
</svg>
