<svg width="2048" height="2048" viewBox="0 0 2048 2048" fill="none" xmlns="http://www.w3.org/2000/svg">
<path d="M1674.35 1023.99C1674.35 1383.17 1383.17 1674.35 1023.99 1674.35C664.812 1674.35 373.639 1383.17 373.639 1023.99C373.639 664.812 664.812 373.639 1023.99 373.639C1383.17 373.639 1674.35 664.812 1674.35 1023.99Z" fill="#F3B235"/>
<path d="M959.205 213C561.567 244.334 244.334 561.567 213 959.205H285.244C316.22 601.354 601.354 316.22 959.205 285.244V213Z" fill="#F3B235"/>
<path d="M959.205 1762.76C601.354 1731.78 316.22 1446.65 285.244 1088.8H213C244.334 1486.43 561.567 1803.67 959.205 1835V1762.76Z" fill="#F3B235"/>
<path d="M1088.8 1835V1762.76C1446.65 1731.78 1731.78 1446.65 1762.76 1088.8H1835C1803.67 1486.43 1486.43 1803.67 1088.8 1835Z" fill="#F3B235"/>
<path d="M1088.8 285.244V213C1486.43 244.334 1803.67 561.567 1835 959.205H1762.76C1731.78 601.354 1446.65 316.22 1088.8 285.244Z" fill="#F3B235"/>
</svg>
