<svg width="2048" height="2048" viewBox="0 0 2048 2048" fill="none" xmlns="http://www.w3.org/2000/svg">
<path d="M101 1083.39V929.853L336.201 706H497.525L101 1083.39Z" fill="#F3B235"/>
<path d="M101 1341.79V1188.25L607.698 706H769.022L101 1341.79Z" fill="#F3B235"/>
<path d="M372.275 1342H210.951L879.194 706H1040.52L372.275 1342Z" fill="#F3B235"/>
<path d="M643.772 1342H482.448L1150.69 706H1312.01L643.772 1342Z" fill="#F3B235"/>
<path d="M899.529 1342H738.205L1406.45 706H1567.77L899.529 1342Z" fill="#F3B235"/>
<path d="M1171.03 1342H1009.7L1677.94 706H1839.27L1171.03 1342Z" fill="#F3B235"/>
<path d="M1442.52 1342H1281.2L1947 708.323V861.863L1442.52 1342Z" fill="#F3B235"/>
<path d="M1714.02 1342H1552.69L1947 966.719V1120.26L1714.02 1342Z" fill="#F3B235"/>
<path d="M1947 1225.12V1342H1824.19L1947 1225.12Z" fill="#F3B235"/>
<path d="M226.029 706L101 824.996V706H226.029Z" fill="#F3B235"/>
</svg>
