<svg width="2048" height="2048" viewBox="0 0 2048 2048" fill="none" xmlns="http://www.w3.org/2000/svg">
<path d="M1155.63 983.953C1155.63 1056.33 1096.92 1115.01 1024.5 1115.01C952.078 1115.01 893.369 1056.33 893.369 983.953C893.369 911.574 952.078 852.9 1024.5 852.9C1096.92 852.9 1155.63 911.574 1155.63 983.953Z" fill="#F3B235"/>
<path d="M262 983.953C262 850.185 297.232 718.775 364.156 602.929C431.079 487.083 527.335 390.884 643.25 324L910.125 785.967C875.35 806.032 846.474 834.892 826.397 869.646C806.32 904.399 795.75 943.823 795.75 983.953H262Z" fill="#F3B235"/>
<path d="M1405.75 324.001C1521.66 390.885 1617.92 487.084 1684.84 602.93C1751.77 718.776 1787 850.186 1787 983.954L1253.25 983.954C1253.25 943.823 1242.68 904.4 1222.6 869.646C1202.53 834.893 1173.65 806.033 1138.88 785.968L1405.75 324.001Z" fill="#F3B235"/>
<path d="M1405.75 1643.91C1289.83 1710.79 1158.35 1746 1024.5 1746C890.653 1746 759.164 1710.79 643.249 1643.9L910.125 1181.94C944.899 1202 984.346 1212.57 1024.5 1212.57C1064.65 1212.57 1104.1 1202 1138.87 1181.94L1405.75 1643.91Z" fill="#F3B235"/>
</svg>
