<svg width="2048" height="2048" viewBox="0 0 2048 2048" fill="none" xmlns="http://www.w3.org/2000/svg">
<path fill-rule="evenodd" clip-rule="evenodd" d="M1199.7 438.2C1121.84 303.267 927.164 303.267 849.296 438.2L289.406 1408.4C211.538 1543.33 308.873 1712 464.61 1712H1584.39C1740.13 1712 1837.46 1543.33 1759.59 1408.4L1199.7 438.2ZM684.208 1287.52C719.316 1458.23 882.161 1513.27 966.561 1520.6C901.797 1504.27 834.052 1448.69 897.596 1309.22L958.005 1379.31C961.921 1375.42 967.402 1364.29 958.005 1350.94C956.9 1349.37 955.704 1347.77 954.447 1346.08C942.345 1329.87 924.445 1305.9 924.445 1225.77C924.445 1155.01 965.836 1090.59 986.532 1067.23C978.142 1096.71 970.758 1165.03 1008.35 1202.41C1012.49 1206.53 1016.83 1210.78 1021.3 1215.16C1067.5 1260.41 1127.49 1319.18 1127.49 1387.65C1127.49 1444.37 1104.52 1494.42 1059.31 1515.52C1253.65 1488.55 1338.37 1371.46 1357.1 1309.22C1338.33 1330.99 1303.51 1352.84 1278.4 1366.46C1272.59 1369.61 1266.58 1363.46 1269.72 1357.68L1295.97 1309.41C1328.97 1248.72 1329.6 1175.79 1297.64 1114.56C1285.99 1092.23 1279.91 1067.46 1279.91 1042.32V1027.18C1239.64 1032.52 1226.21 1090.59 1224.54 1118.96L1151.15 883.657C1135.51 833.484 1134.38 779.963 1147.89 729.184L1157.41 693.4C903.767 751.132 844.764 932.348 846.034 1031.04C846.13 1038.55 838.155 1043.09 833.471 1037.19C817.978 1017.69 816.641 987.401 818.451 972.103C711.46 1108.26 706.1 1224.72 720.836 1284.31C722.939 1292.81 713.445 1301.52 705.495 1297.71L684.208 1287.52Z" fill="#F3B235"/>
</svg>
