<svg width="2048" height="2048" viewBox="0 0 2048 2048" fill="none" xmlns="http://www.w3.org/2000/svg">
<path fill-rule="evenodd" clip-rule="evenodd" d="M1788.37 718.643H259.631V1329.36H1788.37V718.643ZM223 682V1366H1825V682H223Z" fill="#F3B235"/>
<path d="M303.588 762.614H442.787L303.588 901.857V762.614Z" fill="#F3B235"/>
<path d="M1744.41 1285.39H1605.21L1744.41 1146.14V1285.39Z" fill="#F3B235"/>
<path d="M1081.17 762.614H835.96L313.357 1285.39H558.563L1081.17 762.614Z" fill="#F3B235"/>
<path d="M888.243 1285.39H643.037L1165.64 762.614H1410.85L888.243 1285.39Z" fill="#F3B235"/>
<path d="M1222.81 1285.39H977.601L1500.2 762.614H1744.41V763.614L1222.81 1285.39Z" fill="#F3B235"/>
<path d="M1540.28 1285.39H1295.07L1744.41 835.9V1081.19L1540.28 1285.39Z" fill="#F3B235"/>
<path d="M303.588 1214.32L755.15 762.614H509.944L303.588 969.036V1214.32Z" fill="#F3B235"/>
</svg>
