<svg width="2048" height="2048" viewBox="0 0 2048 2048" fill="none" xmlns="http://www.w3.org/2000/svg">
<path fill-rule="evenodd" clip-rule="evenodd" d="M276 534.83C276 391.882 391.882 276 534.83 276H675.633V379.532H534.83C449.061 379.532 379.532 449.061 379.532 534.83V675.633H276V534.83ZM1512.17 379.532H1371.37V276H1512.17C1655.12 276 1771 391.882 1771 534.83V675.633H1667.47V534.83C1667.47 449.061 1597.94 379.532 1512.17 379.532ZM379.532 1371.37V1512.17C379.532 1597.94 449.061 1667.47 534.83 1667.47H675.633V1771H534.83C391.882 1771 276 1655.12 276 1512.17V1371.37H379.532ZM1667.47 1512.17V1371.37H1771V1512.17C1771 1655.12 1655.12 1771 1512.17 1771H1371.37V1667.47H1512.17C1597.94 1667.47 1667.47 1597.94 1667.47 1512.17Z" fill="#F3B235"/>
</svg>
