<svg width="2048" height="2048" viewBox="0 0 2048 2048" fill="none" xmlns="http://www.w3.org/2000/svg">
<path fill-rule="evenodd" clip-rule="evenodd" d="M924.87 253.532C575.07 297.893 297.893 575.07 253.532 924.87H361.751C404.679 634.36 634.36 404.679 924.87 361.751V253.532ZM924.87 1685.25C632.932 1642.11 402.423 1410.38 361.132 1117.84H253C295.63 1469.66 573.641 1748.93 924.87 1793.47V1685.25ZM1117.84 1794V1685.87C1411.81 1644.38 1644.38 1411.81 1685.87 1117.84H1794C1751.2 1471.09 1471.09 1751.2 1117.84 1794ZM1117.84 361.132V253C1469.66 295.63 1748.93 573.641 1793.47 924.87H1685.25C1642.11 632.932 1410.38 402.423 1117.84 361.132Z" fill="#F3B235"/>
</svg>
