<svg width="2048" height="2048" viewBox="0 0 2048 2048" fill="none" xmlns="http://www.w3.org/2000/svg">
<path fill-rule="evenodd" clip-rule="evenodd" d="M741.872 511.813L264.658 1025.57L741.829 1537.13H772.747V1452.26C772.747 1423.13 796.367 1399.51 825.504 1399.51H1791.19V649.44H825.504C796.367 649.44 772.747 625.82 772.747 596.683V511.813H741.872ZM696.218 459.852C706.2 449.106 720.205 443 734.872 443H788.804C817.941 443 841.561 466.62 841.561 495.757V580.627H1807.24C1836.38 580.627 1860 604.247 1860 633.384V1415.56C1860 1444.7 1836.38 1468.32 1807.24 1468.32H841.561V1553.19C841.561 1582.33 817.941 1605.95 788.804 1605.95H734.849C720.22 1605.95 706.248 1599.87 696.27 1589.18L204.143 1061.58C185.268 1041.34 185.235 1009.96 204.068 989.69L696.218 459.852Z" fill="#F3B235"/>
</svg>
