<svg width="2048" height="2048" viewBox="0 0 2048 2048" fill="none" xmlns="http://www.w3.org/2000/svg">
<path d="M959.555 205.885C558.585 236.825 238.41 556.107 206.076 956.685H715.898C741.06 833.914 837.196 737.012 959.555 710.73V205.885Z" fill="#F3B235"/>
<path d="M959.555 1330.61C839.135 1304.74 744.113 1210.48 717.148 1090.47H206.076C238.41 1491.05 558.585 1810.33 959.555 1841.27V1330.61Z" fill="#F3B235"/>
<path d="M1093.34 1840.8V1330.61C1213.76 1304.74 1308.78 1210.48 1335.75 1090.47H1841C1808.82 1489.11 1491.58 1807.24 1093.34 1840.8Z" fill="#F3B235"/>
<path d="M1093.34 710.73V206.354C1491.58 239.918 1808.82 558.046 1841 956.685H1337C1311.83 833.914 1215.7 737.012 1093.34 710.73Z" fill="#F3B235"/>
</svg>
