<svg width="2048" height="2048" viewBox="0 0 2048 2048" fill="none" xmlns="http://www.w3.org/2000/svg">
<path d="M1023.5 1898C1138.21 1898 1251.8 1875.41 1357.77 1831.51C1463.75 1787.61 1560.05 1723.27 1641.16 1642.16C1722.27 1561.05 1786.61 1464.75 1830.51 1358.77C1874.41 1252.8 1897 1139.21 1897 1024.5H1404.25C1404.25 1074.5 1394.4 1124.01 1375.27 1170.21C1356.13 1216.4 1328.09 1258.37 1292.73 1293.73C1257.37 1329.09 1215.4 1357.13 1169.21 1376.27C1123.01 1395.4 1073.5 1405.25 1023.5 1405.25V1898Z" fill="#F3B235"/>
<path d="M1023.5 151C908.79 151 795.204 173.594 689.226 217.491C583.248 261.389 486.954 325.73 405.842 406.842C324.73 487.954 260.389 584.248 216.491 690.226C172.594 796.204 150 909.79 150 1024.5H642.751C642.751 974.499 652.599 924.988 671.734 878.794C690.868 832.599 718.914 790.626 754.27 755.27C789.626 719.914 831.599 691.868 877.794 672.734C923.988 653.599 973.499 643.751 1023.5 643.751V151Z" fill="#F3B235"/>
<path fill-rule="evenodd" clip-rule="evenodd" d="M1803.74 1024.5C1803.74 593.583 1454.42 244.256 1023.5 244.256C592.583 244.256 243.256 593.583 243.256 1024.5C243.256 1455.42 592.583 1804.74 1023.5 1804.74C1454.42 1804.74 1803.74 1455.42 1803.74 1024.5ZM1497.51 1024.5C1497.51 1286.29 1285.29 1498.51 1023.5 1498.51C761.714 1498.51 549.495 1286.29 549.495 1024.5C549.495 762.714 761.714 550.495 1023.5 550.495C1285.29 550.495 1497.51 762.714 1497.51 1024.5ZM1897 1024.5C1897 542.079 1505.92 151 1023.5 151C541.079 151 150 542.079 150 1024.5C150 1506.92 541.079 1898 1023.5 1898C1505.92 1898 1897 1506.92 1897 1024.5ZM1404.25 1024.5C1404.25 1234.78 1233.78 1405.25 1023.5 1405.25C813.218 1405.25 642.751 1234.78 642.751 1024.5C642.751 814.218 813.218 643.751 1023.5 643.751C1233.78 643.751 1404.25 814.218 1404.25 1024.5Z" fill="#F3B235"/>
</svg>
