<svg width="2048" height="2048" viewBox="0 0 2048 2048" fill="none" xmlns="http://www.w3.org/2000/svg">
<path d="M1657 1390.08C1721.2 1278.62 1755 1152.2 1755 1023.5C1755 894.805 1721.2 768.377 1657 656.924C1592.79 545.471 1500.45 452.919 1389.25 388.572C1278.05 324.224 1151.91 290.348 1023.5 290.348L1023.5 410.414C1130.88 410.414 1236.36 438.743 1329.35 492.552C1422.34 546.362 1499.56 623.756 1553.25 716.957C1606.94 810.158 1635.2 915.881 1635.2 1023.5C1635.2 1131.12 1606.94 1236.84 1553.25 1330.04L1657 1390.08Z" fill="#F3B235"/>
<path d="M915.935 220V479.547H1028.06V220L915.935 220Z" fill="#F3B235"/>
<path d="M390.002 656.924C325.8 768.377 292 894.805 292 1023.5C292 1152.19 325.8 1278.62 390.002 1390.08C454.205 1501.53 546.548 1594.08 657.75 1658.43C768.952 1722.78 895.095 1756.65 1023.5 1756.65V1636.59C916.124 1636.59 810.639 1608.26 717.648 1554.45C624.657 1500.64 547.437 1423.24 493.749 1330.04C440.06 1236.84 411.796 1131.12 411.796 1023.5C411.796 915.881 440.06 810.158 493.749 716.957L390.002 656.924Z" fill="#F3B235"/>
<path d="M1131.07 1827V1567.45H1018.94V1827H1131.07Z" fill="#F3B235"/>
</svg>
