<svg width="2048" height="2048" viewBox="0 0 2048 2048" fill="none" xmlns="http://www.w3.org/2000/svg">
<path fill-rule="evenodd" clip-rule="evenodd" d="M211 211H712.638V1032.65C712.638 1206.2 853.33 1346.89 1026.88 1346.89C1200.44 1346.89 1341.13 1206.2 1341.13 1032.65V211H1837V1024C1837 1473.01 1473.01 1837 1024 1837C574.993 1837 211 1473.01 211 1024V211ZM1075.89 1767.81V1421.85H972.106V1767.81H1075.89ZM285.957 285.957H631.915V827.957H285.957V285.957ZM1421.85 285.957H1767.81V827.957H1421.85V285.957ZM285.957 931.745H631.915V1035.53H285.957V931.745ZM1767.81 931.745H1421.85V1035.53H1767.81V931.745ZM1368.39 1248.87L1613.02 1493.5L1539.63 1566.89L1295 1322.26L1368.39 1248.87ZM441.638 1493.5L686.267 1248.87L759.656 1322.26L515.027 1566.89L441.638 1493.5Z" fill="#F3B235"/>
</svg>
