<svg width="2048" height="2048" viewBox="0 0 2048 2048" fill="none" xmlns="http://www.w3.org/2000/svg">
<path d="M67.0242 918.679L67.0242 1131.35L31 1131.35L31 918.679L67.0242 918.679Z" fill="#F3B235"/>
<path d="M136.029 917V1129.67L100.005 1129.67V917L136.029 917Z" fill="#F3B235"/>
<path d="M311.116 918.679V1131.35L169.039 918.678L311.116 918.679Z" fill="#F3B235"/>
<path d="M168.61 1130.77V989.274L264.526 1130.77L168.61 1130.77Z" fill="#F3B235"/>
<path d="M481.381 918.526V1060.02L385.464 918.526L481.381 918.526Z" fill="#F3B235"/>
<path d="M652.362 918.526V1060.02L556.446 918.526L652.362 918.526Z" fill="#F3B235"/>
<path d="M1686.59 1130.77V989.274L1782.51 1130.77L1686.59 1130.77Z" fill="#F3B235"/>
<path d="M823.344 918.526V1060.02L727.427 918.526L823.344 918.526Z" fill="#F3B235"/>
<path d="M482.13 1129.67L339.717 1129.67V917L482.13 1129.67Z" fill="#F3B235"/>
<path d="M823.865 1129.67L681.788 1129.67V917L823.865 1129.67Z" fill="#F3B235"/>
<path d="M1281.81 1130.77H1315.27V918.239H1281.81V1130.77Z" fill="#F3B235"/>
<path d="M1414.01 918.679V1131.35L1377.98 1131.35V918.679L1414.01 918.679Z" fill="#F3B235"/>
<path d="M1483.05 917V1129.67L1447.02 1129.67V917L1483.05 917Z" fill="#F3B235"/>
<path d="M1516.03 918.679V1131.35L1658.11 1131.35L1516.03 918.679Z" fill="#F3B235"/>
<path d="M1686.74 917.001L1829.15 917.001V1129.68L1686.74 917.001Z" fill="#F3B235"/>
<path d="M1969.5 1024.65L1861.74 918.526H1909.24L2017 1024.65L1909.24 1130.77H1861.74L1969.5 1024.65Z" fill="#F3B235"/>
<path d="M982.501 1095V1060L947.501 1095V1130L982.501 1095Z" fill="#F3B235"/>
<path d="M1090.5 1041.62L1053.37 1004.5V955.004L1139.99 1041.62L1090.5 1041.62Z" fill="#F3B235"/>
<path d="M1147.25 1130L1245 1032.25V920.005H1210V982.756L1147.25 920.005H1097.75L1202.75 1025.01L1097.75 1130H1147.25Z" fill="#F3B235"/>
<path d="M1017.5 920.005H1010.25L895 1035.26V979.754L938.914 935.84C938.914 935.84 938.328 936.426 938.945 935.808L954.749 920.005H905.251L860 965.256V1130H895V1084.75L1017.5 962.254V920.005Z" fill="#F3B235"/>
</svg>
