<svg width="2048" height="2048" viewBox="0 0 2048 2048" fill="none" xmlns="http://www.w3.org/2000/svg">
<path fill-rule="evenodd" clip-rule="evenodd" d="M358.279 588.157C358.279 461.201 461.197 358.282 588.154 358.282H713.207V450.232H588.154C511.98 450.232 450.229 511.983 450.229 588.157V713.209H358.279V588.157ZM1456.16 450.232H1331.11V358.282H1456.16C1583.12 358.282 1686.04 461.201 1686.04 588.157V713.209H1594.09V588.157C1594.09 511.983 1532.34 450.232 1456.16 450.232ZM450.229 1331.11V1456.17C450.229 1532.34 511.98 1594.09 588.154 1594.09H713.207V1686.04H588.154C461.197 1686.04 358.279 1583.12 358.279 1456.17V1331.11H450.229ZM1594.09 1456.17V1331.11H1686.04V1456.17C1686.04 1583.12 1583.12 1686.04 1456.16 1686.04H1331.11V1594.09H1456.16C1532.34 1594.09 1594.09 1532.34 1594.09 1456.17Z" fill="#F3B235"/>
<path d="M213 944.923H599.191V1099.4H213V944.923Z" fill="#F3B235"/>
<path d="M1448.81 944.923H1835V1099.4H1448.81V944.923Z" fill="#F3B235"/>
<path d="M946.764 1835V1448.81H1101.24V1835H946.764Z" fill="#F3B235"/>
<path d="M946.764 599.19V213L1101.24 213V599.19H946.764Z" fill="#F3B235"/>
</svg>
