<svg width="2048" height="2048" viewBox="0 0 2048 2048" fill="none" xmlns="http://www.w3.org/2000/svg">
<path d="M168.295 1098.55L284.912 746H474.963L358.347 1098.55H168.295Z" fill="#F3B235"/>
<path d="M147.396 1161.74L101 1302H291.052L337.448 1161.74H147.396Z" fill="#F3B235"/>
<path d="M392.735 1161.74L346.339 1302H536.391L582.787 1161.74H392.735Z" fill="#F3B235"/>
<path d="M638.075 1161.74L591.679 1302H781.73L828.126 1161.74H638.075Z" fill="#F3B235"/>
<path d="M849.025 1098.55H658.974L775.591 746H965.642L849.025 1098.55Z" fill="#F3B235"/>
<path d="M883.414 1161.74L837.018 1302H1027.07L1073.47 1161.74H883.414Z" fill="#F3B235"/>
<path d="M1094.36 1098.55H904.313L1020.93 746H1210.98L1094.36 1098.55Z" fill="#F3B235"/>
<path d="M1128.75 1161.74L1082.36 1302H1272.41L1318.81 1161.74H1128.75Z" fill="#F3B235"/>
<path d="M1339.7 1098.55H1149.65L1266.27 746H1456.32L1339.7 1098.55Z" fill="#F3B235"/>
<path d="M1374.09 1161.74L1327.7 1302H1517.75L1564.14 1161.74H1374.09Z" fill="#F3B235"/>
<path d="M1585.04 1098.55H1394.99L1511.61 746H1701.66L1585.04 1098.55Z" fill="#F3B235"/>
<path d="M1619.43 1161.74L1573.04 1302H1763.09L1809.48 1161.74H1619.43Z" fill="#F3B235"/>
<path d="M1830.38 1098.55H1640.33L1756.95 746H1947L1830.38 1098.55Z" fill="#F3B235"/>
<path d="M603.686 1098.55H413.634L530.251 746H720.303L603.686 1098.55Z" fill="#F3B235"/>
</svg>
