<svg width="2048" height="2048" viewBox="0 0 2048 2048" fill="none" xmlns="http://www.w3.org/2000/svg">
<path fill-rule="evenodd" clip-rule="evenodd" d="M315.635 686H130V872.074L315.635 686ZM130 1052.06L495.196 686H656.667L130 1211.74V1052.06ZM836.598 686L159.408 1362H321.919L997.643 686H836.598ZM1557.89 686H1396.42L1918 1206.66V1046.96L1557.89 686ZM1918 866.975V686H1737.45L1918 866.975ZM1055.44 686H1216.49L1893.68 1362H1731.17L1055.44 686ZM501.655 1362H693.728L1025.27 1030.72L1356.82 1362H1551.43L1026.54 836.897L501.655 1362ZM1025.27 1210.42L1176.97 1362H873.572L1025.27 1210.42Z" fill="#F3B235"/>
</svg>
