<svg width="2048" height="2048" viewBox="0 0 2048 2048" fill="none" xmlns="http://www.w3.org/2000/svg">
<path fill-rule="evenodd" clip-rule="evenodd" d="M1722.49 1607.52L1037.39 421.025C1031.44 410.719 1016.56 410.719 1010.61 421.025L325.514 1607.52C319.563 1617.82 327.002 1630.7 338.904 1630.7H1709.1C1721 1630.7 1728.44 1617.82 1722.49 1607.52ZM1104.34 382.377C1068.63 320.541 979.368 320.541 943.663 382.377L258.567 1568.87C222.861 1630.7 267.493 1708 338.904 1708H1709.1C1780.51 1708 1825.14 1630.7 1789.43 1568.87L1104.34 382.377Z" fill="#F3B235"/>
<path d="M1433.67 1462.78L1147.24 1462.78L1290.46 1214.76L1433.67 1462.78Z" fill="#F3B235"/>
<path d="M897.008 1462.78L610.581 1462.78L753.794 1214.76L897.008 1462.78Z" fill="#F3B235"/>
<path d="M1165.34 982.323H878.911L1022.12 734.297L1165.34 982.323Z" fill="#F3B235"/>
</svg>
