<svg width="2048" height="2048" viewBox="0 0 2048 2048" fill="none" xmlns="http://www.w3.org/2000/svg">
<path fill-rule="evenodd" clip-rule="evenodd" d="M504.289 548.83C537.818 548.83 563.29 522.243 563.29 491.54C563.29 460.837 537.818 434.25 504.289 434.25C470.76 434.25 445.288 460.837 445.288 491.54C445.288 522.243 470.76 548.83 504.289 548.83ZM504.289 1084.66C536.874 1084.66 563.29 1058.26 563.29 1025.68C563.29 993.114 536.874 966.71 504.289 966.71C471.703 966.71 445.288 993.114 445.288 1025.68C445.288 1058.26 471.703 1084.66 504.289 1084.66ZM1023.5 1084.66C1056.09 1084.66 1082.5 1058.26 1082.5 1025.68C1082.5 993.114 1056.09 966.71 1023.5 966.71C990.914 966.71 964.499 993.114 964.499 1025.68C964.499 1058.26 990.914 1084.66 1023.5 1084.66ZM504.289 1613.75C537.818 1613.75 563.29 1587.16 563.29 1556.46C563.29 1525.76 537.818 1499.17 504.289 1499.17C470.76 1499.17 445.288 1525.76 445.288 1556.46C445.288 1587.16 470.76 1613.75 504.289 1613.75ZM1023.5 1613.75C1057.03 1613.75 1082.5 1587.16 1082.5 1556.46C1082.5 1525.76 1057.03 1499.17 1023.5 1499.17C989.971 1499.17 964.499 1525.76 964.499 1556.46C964.499 1587.16 989.971 1613.75 1023.5 1613.75ZM1542.71 1613.75C1576.24 1613.75 1601.71 1587.16 1601.71 1556.46C1601.71 1525.76 1576.24 1499.17 1542.71 1499.17C1509.18 1499.17 1483.71 1525.76 1483.71 1556.46C1483.71 1587.16 1509.18 1613.75 1542.71 1613.75ZM504.289 633.08C583.425 633.08 647.578 569.71 647.578 491.54C647.578 413.37 583.425 350 504.289 350C425.153 350 361 413.37 361 491.54C361 569.71 425.153 633.08 504.289 633.08ZM504.289 1168.91C583.425 1168.91 647.578 1104.79 647.578 1025.68C647.578 946.584 583.425 882.46 504.289 882.46C425.153 882.46 361 946.584 361 1025.68C361 1104.79 425.153 1168.91 504.289 1168.91ZM1166.79 1025.68C1166.79 1104.79 1102.64 1168.91 1023.5 1168.91C944.364 1168.91 880.211 1104.79 880.211 1025.68C880.211 946.584 944.364 882.46 1023.5 882.46C1102.64 882.46 1166.79 946.584 1166.79 1025.68ZM504.289 1698C583.425 1698 647.578 1634.63 647.578 1556.46C647.578 1478.29 583.425 1414.92 504.289 1414.92C425.153 1414.92 361 1478.29 361 1556.46C361 1634.63 425.153 1698 504.289 1698ZM1166.79 1556.46C1166.79 1634.63 1102.64 1698 1023.5 1698C944.364 1698 880.211 1634.63 880.211 1556.46C880.211 1478.29 944.364 1414.92 1023.5 1414.92C1102.64 1414.92 1166.79 1478.29 1166.79 1556.46ZM1542.71 1698C1621.85 1698 1686 1634.63 1686 1556.46C1686 1478.29 1621.85 1414.92 1542.71 1414.92C1463.57 1414.92 1399.42 1478.29 1399.42 1556.46C1399.42 1634.63 1463.57 1698 1542.71 1698Z" fill="#F3B235"/>
</svg>
