<svg width="2048" height="2048" viewBox="0 0 2048 2048" fill="none" xmlns="http://www.w3.org/2000/svg">
<path d="M1886 1024.5C1886 911.235 1863.69 799.079 1820.35 694.436C1777 589.792 1713.47 494.711 1633.38 414.62C1553.29 334.53 1458.21 270.999 1353.56 227.654C1248.92 184.309 1136.77 162 1023.5 162V1024.5H1886Z" fill="#F3B235"/>
<path d="M161 1024.5C161 1137.76 183.309 1249.92 226.654 1354.56C269.999 1459.21 333.53 1554.29 413.62 1634.38C493.711 1714.47 588.792 1778 693.435 1821.35C798.079 1864.69 910.235 1887 1023.5 1887L1023.5 1024.5L161 1024.5Z" fill="#F3B235"/>
</svg>
