<svg width="2048" height="2048" viewBox="0 0 2048 2048" fill="none" xmlns="http://www.w3.org/2000/svg">
<path fill-rule="evenodd" clip-rule="evenodd" d="M1199.32 438.2C1121.4 303.267 926.601 303.267 848.681 438.2L288.424 1408.4C210.504 1543.33 307.904 1712 463.743 1712H1584.26C1740.1 1712 1837.5 1543.33 1759.58 1408.4L1199.32 438.2ZM857.841 1510.3C814.942 1483.4 729.144 1394.85 729.144 1255.89C729.144 1142.42 771.626 1105.26 820.987 1062.08C847.184 1039.16 875.319 1014.55 900.069 975.939C971.456 864.572 998.603 765.464 999.608 715.4C1088.42 791.689 1266.05 1000.87 1266.05 1227.28C1266.05 1453.7 1143.39 1525.97 1082.05 1533.8C1084.09 1529.78 1086.22 1525.78 1088.37 1521.7C1104.33 1491.61 1122.27 1457.77 1122.27 1386.67C1122.27 1335.84 1096.94 1312.18 1070.74 1287.72C1042.71 1261.54 1013.68 1234.44 1013.68 1172.11C982.043 1203.72 972.142 1228.93 963.23 1251.63C955.434 1271.48 948.395 1289.41 928.222 1308C927.173 1308.97 926.118 1309.94 925.058 1310.91C878.641 1353.62 823.436 1404.42 857.841 1510.3Z" fill="#F3B235"/>
</svg>
