<svg width="2048" height="2048" viewBox="0 0 2048 2048" fill="none" xmlns="http://www.w3.org/2000/svg">
<path d="M1829 1024.5C1829 865.187 1781.76 709.452 1693.25 576.988C1604.74 444.525 1478.94 341.282 1331.75 280.315C1184.57 219.349 1022.61 203.397 866.355 234.478C710.103 265.558 566.577 342.275 453.926 454.926C341.275 567.577 264.558 711.103 233.478 867.355C202.397 1023.61 218.349 1185.57 279.315 1332.75C340.282 1479.94 443.525 1605.74 575.988 1694.25C708.452 1782.76 864.187 1830 1023.5 1830V1375.61C954.057 1375.61 886.174 1355.02 828.435 1316.44C770.695 1277.86 725.693 1223.02 699.118 1158.86C672.544 1094.71 665.59 1024.11 679.138 956.002C692.686 887.894 726.125 825.332 775.229 776.229C824.332 727.125 886.894 693.686 955.002 680.138C1023.11 666.59 1093.71 673.544 1157.86 700.118C1222.02 726.693 1276.86 771.695 1315.44 829.435C1354.02 887.174 1374.61 955.057 1374.61 1024.5H1829Z" fill="#F3B235"/>
</svg>
