<svg width="2048" height="2048" viewBox="0 0 2048 2048" fill="none" xmlns="http://www.w3.org/2000/svg">
<path d="M219.67 1618.12L579.374 1258.41L788.59 1467.63L428.886 1827.33L219.67 1618.12Z" fill="#F3B235"/>
<path d="M491.285 1170.32L878.517 1168.48L876.682 1555.72L491.285 1170.32Z" fill="#F3B235"/>
<path d="M1621.78 216.002L1258.41 579.377L1467.63 788.592L1831 425.218L1621.78 216.002Z" fill="#F3B235"/>
<path d="M1170.32 491.287L1168.48 878.519L1555.71 876.684L1170.32 491.287Z" fill="#F3B235"/>
<path d="M1621.78 1831L1258.41 1467.63L1467.63 1258.41L1831 1621.78L1621.78 1831Z" fill="#F3B235"/>
<path d="M1170.32 1555.72L1168.48 1168.48L1555.71 1170.32L1170.32 1555.72Z" fill="#F3B235"/>
<path d="M216 425.216L579.375 788.59L788.59 579.375L425.216 216L216 425.216Z" fill="#F3B235"/>
<path d="M491.285 876.684L878.517 878.519L876.682 491.286L491.285 876.684Z" fill="#F3B235"/>
</svg>
