<svg width="2048" height="2048" viewBox="0 0 2048 2048" fill="none" xmlns="http://www.w3.org/2000/svg">
<path d="M1375.92 429H1497.36L1416.4 565.021H1570.39L1651.35 429H1729.85C1783.51 429 1827 472.474 1827 526.101V643.116H220V526.101C220 472.474 263.495 429 317.149 429H395.649L314.692 565.021H468.684L549.641 429H671.077L590.12 565.021H744.111L825.068 429H946.504L865.547 565.021H1019.54L1100.5 429H1221.93L1140.97 565.021H1294.97L1375.92 429Z" fill="#F3B235"/>
<path d="M661.064 942.537C661.064 923.116 652.904 916.125 639.303 916.125H615.21V1110.33H639.303C652.904 1110.33 661.064 1103.34 661.064 1083.92V942.537Z" fill="#F3B235"/>
<path d="M812.704 1062.94L792.109 925.447L771.513 1062.94H812.704Z" fill="#F3B235"/>
<path d="M1434.38 944.09C1434.38 924.67 1427.77 916.125 1412.62 916.125H1392.02V999.632H1408.73C1424.66 999.632 1434.38 992.641 1434.38 970.89V944.09Z" fill="#F3B235"/>
<path fill-rule="evenodd" clip-rule="evenodd" d="M220 711.896H1827V1286.41H220V711.896ZM640.08 1149.17H572.465V877.285H640.08C682.826 877.285 703.81 900.977 703.81 944.479V1081.97C703.81 1125.48 682.826 1149.17 640.08 1149.17ZM762.964 877.285H825.528L869.05 1149.17H825.916L818.533 1099.84H766.073L758.69 1149.17H719.441L762.964 877.285ZM1024.19 1149.17H980.276L927.039 952.247V1149.17H888.568V877.285H942.194L986.105 1040.03V877.285H1024.19V1149.17ZM1138.34 1036.53H1118.91V997.69H1178.75V1083.92C1178.75 1127.42 1156.99 1152.28 1115.02 1152.28C1073.06 1152.28 1051.3 1127.42 1051.3 1083.92V942.537C1051.3 899.035 1073.06 874.177 1115.02 874.177C1156.99 874.177 1178.75 899.035 1178.75 942.537V968.948H1138.34V939.818C1138.34 920.398 1129.79 913.018 1116.19 913.018C1102.59 913.018 1094.04 920.398 1094.04 939.818V1086.64C1094.04 1106.06 1102.59 1113.05 1116.19 1113.05C1129.79 1113.05 1138.34 1106.06 1138.34 1086.64V1036.53ZM1322.79 916.125H1248.95V991.864H1307.63V1030.7H1248.95V1110.33H1322.79V1149.17H1206.21V877.285H1322.79V916.125ZM1477.51 1116.15C1477.51 1129.36 1477.9 1139.07 1482.17 1149.17H1438.65L1438.53 1148.81C1436.27 1142.03 1434.76 1137.53 1434.76 1115.77V1073.04C1434.76 1047.79 1426.22 1038.47 1406.79 1038.47H1392.02V1149.17H1349.27V877.285H1413.78C1458.08 877.285 1477.12 897.87 1477.12 939.818V961.18C1477.12 989.145 1468.18 1007.4 1449.14 1016.33C1470.52 1025.27 1477.51 1045.85 1477.51 1074.21V1116.15Z" fill="#F3B235"/>
<path d="M220 1355.19V1521.9C220 1575.53 263.495 1619 317.149 1619H365.76L476.607 1432.76H630.598L519.752 1619H641.188L752.034 1432.76H906.025L795.179 1619H916.615L1027.46 1432.76H1181.45L1070.61 1619H1192.04L1302.89 1432.76H1456.88L1346.03 1619H1467.47L1578.32 1432.76H1732.31L1621.46 1619H1729.85C1783.51 1619 1827 1575.53 1827 1521.9V1355.19H220Z" fill="#F3B235"/>
</svg>
