<svg width="2048" height="2048" viewBox="0 0 2048 2048" fill="none" xmlns="http://www.w3.org/2000/svg">
<path d="M176 237.415V323.387C545.317 323.387 1109.28 1017.77 1109.28 1414.56H964.178V1487.31L1226.51 1414.56L1524.81 1487.31V1414.56H1386.3C1386.3 908.654 736.629 237.415 176 237.415Z" fill="#F3B235"/>
<path d="M648.082 1797.53H870.683V1719.97L1056.99 1625.18L996.33 1485.15L1160.97 1554.09L1245.46 1429.14L1327.78 1536.86L1449.1 1476.54L1436.1 1586.69L1592.07 1521.78L1492.42 1672.58L1612.7 1735.05V1797.53L1871 1810.46V1756.6L1612.7 1653.19L1826.04 1319.27L1553.08 1429.14L1612.7 970.266L1388.44 1390.36L1245.46 1349.43L1108.98 1409.06L799.193 1319.27L930.017 1586.69L648.082 1756.6V1797.53Z" fill="#F3B235"/>
</svg>
