<svg width="2048" height="2048" viewBox="0 0 2048 2048" fill="none" xmlns="http://www.w3.org/2000/svg">
<path d="M918.415 606.15H1128.56V1024H918.415V606.15Z" fill="#F3B235"/>
<path d="M918.415 178L879.951 178L766 342.799L766 524.697L939.147 672.385L1107.85 672.385L1281 524.697V342.799L1167.05 178L1128.56 178V389.868C1128.56 447.561 1081.52 494.33 1023.49 494.33C965.457 494.33 918.415 447.561 918.415 389.868V178Z" fill="#F3B235"/>
<path d="M1128.59 1441.85H918.441L918.441 1024L1128.59 1024L1128.59 1441.85Z" fill="#F3B235"/>
<path d="M1128.59 1870H1167.05L1281 1705.2L1281 1523.3L1107.85 1375.62H939.147L766 1523.3L766 1705.2L879.951 1870H918.441L918.441 1658.13C918.441 1600.44 965.484 1553.67 1023.51 1553.67C1081.54 1553.67 1128.59 1600.44 1128.59 1658.13L1128.59 1870Z" fill="#F3B235"/>
</svg>
