<svg width="2048" height="2048" viewBox="0 0 2048 2048" fill="none" xmlns="http://www.w3.org/2000/svg">
<path fill-rule="evenodd" clip-rule="evenodd" d="M1735.19 937.824C1721.77 826.391 1682.32 719.24 1619.52 625.254C1540.75 507.373 1428.8 415.496 1297.82 361.241C1166.83 306.987 1022.7 292.791 883.655 320.45C744.605 348.109 616.879 416.38 516.629 516.629C416.38 616.879 348.109 744.605 320.45 883.655C292.791 1022.7 306.987 1166.83 361.241 1297.82C415.496 1428.8 507.373 1540.75 625.254 1619.52C719.24 1682.32 826.391 1721.77 937.824 1735.19V1450.47C882.265 1439.32 829.137 1417.37 781.562 1385.59C709.948 1337.74 654.132 1269.72 621.172 1190.15C588.212 1110.58 579.588 1023.02 596.391 938.543C613.194 854.068 654.669 776.474 715.571 715.571C776.474 654.669 854.068 613.194 938.543 596.391C1023.02 579.588 1110.58 588.212 1190.15 621.172C1269.72 654.132 1337.74 709.948 1385.59 781.562C1417.37 829.137 1439.32 882.265 1450.47 937.824H1735.19ZM1821.41 937.824C1807.62 809.401 1762.98 685.751 1690.75 577.655C1602.57 445.685 1477.24 342.826 1330.6 282.087C1183.97 221.348 1022.61 205.456 866.94 236.42C711.271 267.385 568.279 343.815 456.047 456.047C343.815 568.279 267.385 711.27 236.42 866.94C205.456 1022.61 221.348 1183.97 282.087 1330.6C342.826 1477.24 445.685 1602.57 577.655 1690.75C685.751 1762.98 809.401 1807.62 937.824 1821.41C966.189 1824.46 994.786 1826 1023.5 1826V1373.3C954.316 1373.3 886.686 1352.79 829.161 1314.35C771.637 1275.91 726.802 1221.28 700.326 1157.36C673.851 1093.45 666.923 1023.11 680.421 955.257C693.918 887.403 727.233 825.074 776.154 776.153C825.074 727.233 887.403 693.918 955.257 680.42C1023.11 666.923 1093.45 673.851 1157.36 700.326C1221.28 726.802 1275.91 771.637 1314.35 829.161C1352.79 886.686 1373.3 954.316 1373.3 1023.5H1826C1826 994.786 1824.46 966.189 1821.41 937.824Z" fill="#F3B235"/>
<path d="M1374.77 1374.77H1826C1826 1623.98 1623.98 1826 1374.77 1826V1374.77Z" fill="#F3B235"/>
</svg>
