<svg width="2048" height="2048" viewBox="0 0 2048 2048" fill="none" xmlns="http://www.w3.org/2000/svg">
<path d="M1299.27 749.632L1077.75 365.939C1053.75 324.375 993.755 324.375 969.757 365.939L858.516 558.615L768.526 506.66L879.768 313.983C943.76 203.145 1103.74 203.145 1167.73 313.984L1389.63 698.32L1299.27 749.632Z" fill="#F3B235"/>
<path d="M546.842 890.627L613.498 775.175L703.488 827.131L636.832 942.583L695.533 976.474L528.239 1021.3L483.413 854.006L546.842 890.627Z" fill="#F3B235"/>
<path d="M803.962 653.105L755.825 736.481L665.835 684.526L713.973 601.149L803.962 653.105Z" fill="#F3B235"/>
<path d="M515.463 1161.93L293.938 1545.62C269.941 1587.19 299.937 1639.15 347.932 1639.15H570.415V1743.06H347.932C219.946 1743.06 139.955 1604.51 203.948 1493.67L425.845 1109.33L515.463 1161.93Z" fill="#F3B235"/>
<path d="M1013.78 1743.06H880.47V1639.15H1013.78V1571.36L1136.25 1693.83L1013.78 1816.3V1743.06Z" fill="#F3B235"/>
<path d="M679.522 1639.15H775.797V1743.06H679.522V1639.15Z" fill="#F3B235"/>
<path d="M1257.44 1634.36H1700.49C1748.49 1634.36 1778.49 1582.41 1754.49 1540.84L1643.25 1348.17L1733.24 1296.21L1844.48 1488.89C1908.47 1599.73 1828.48 1738.27 1700.49 1738.27H1256.7L1257.44 1634.36Z" fill="#F3B235"/>
<path d="M1511.55 912.244L1578.21 1027.7L1488.22 1079.65L1421.56 964.199L1362.86 998.09L1407.69 830.796L1574.98 875.623L1511.55 912.244Z" fill="#F3B235"/>
<path d="M1588.69 1253.68L1540.56 1170.3L1630.54 1118.34L1678.68 1201.72L1588.69 1253.68Z" fill="#F3B235"/>
</svg>
