<svg width="2048" height="2048" viewBox="0 0 2048 2048" fill="none" xmlns="http://www.w3.org/2000/svg">
<path d="M1841.25 1386.5C1841.25 1291.23 1822.49 1196.88 1786.03 1108.86C1749.57 1020.84 1696.13 940.863 1628.76 873.494C1561.39 806.125 1481.41 752.685 1393.39 716.225C1305.37 679.766 1211.03 661 1115.75 661V1096.3C1153.86 1096.3 1191.6 1103.81 1226.81 1118.39C1262.02 1132.97 1294.01 1154.35 1320.96 1181.3C1347.9 1208.25 1369.28 1240.24 1383.86 1275.45C1398.45 1310.65 1405.95 1348.39 1405.95 1386.5L1841.25 1386.5Z" fill="#F3B235"/>
<path d="M206 1386.5C206 1291.23 224.766 1196.88 261.225 1108.86C297.685 1020.84 351.125 940.863 418.494 873.494C485.863 806.125 565.841 752.685 653.863 716.226C741.885 679.766 836.226 661 931.5 661V1096.3C893.39 1096.3 855.654 1103.81 820.445 1118.39C785.237 1132.97 753.245 1154.35 726.298 1181.3C699.35 1208.25 677.974 1240.24 663.39 1275.45C648.806 1310.65 641.3 1348.39 641.3 1386.5H206Z" fill="#F3B235"/>
</svg>
