<svg width="2048" height="2048" viewBox="0 0 2048 2048" fill="none" xmlns="http://www.w3.org/2000/svg">
<path d="M1143.13 246.752L1665.5 909.22C1688.16 937.953 1667.72 980.185 1631.16 980.185H1108.79C1084.62 980.185 1065.02 960.568 1065.02 936.37L1065.02 273.902C1065.02 232.342 1117.41 214.132 1143.13 246.752Z" fill="#F3B235"/>
<path fill-rule="evenodd" clip-rule="evenodd" d="M900.922 384.336L900.922 898.031H495.862L900.922 384.336ZM382.496 909.22L904.865 246.752C930.586 214.132 982.976 232.342 982.976 273.902L982.976 936.37C982.976 960.568 963.383 980.185 939.214 980.185L416.844 980.185C380.28 980.185 359.839 937.953 382.496 909.22Z" fill="#F3B235"/>
<path d="M904.865 1801.25L382.496 1138.78C359.839 1110.05 380.28 1067.81 416.844 1067.81H939.214C963.383 1067.81 982.976 1087.43 982.976 1111.63L982.976 1774.1C982.976 1815.66 930.586 1833.87 904.865 1801.25Z" fill="#F3B235"/>
<path fill-rule="evenodd" clip-rule="evenodd" d="M1147.08 1663.66V1149.97H1552.14L1147.08 1663.66ZM1665.5 1138.78L1143.13 1801.25C1117.41 1833.87 1065.02 1815.66 1065.02 1774.1L1065.02 1111.63C1065.02 1087.43 1084.62 1067.81 1108.79 1067.81L1631.16 1067.81C1667.72 1067.81 1688.16 1110.05 1665.5 1138.78Z" fill="#F3B235"/>
</svg>
