<svg width="2048" height="2048" viewBox="0 0 2048 2048" fill="none" xmlns="http://www.w3.org/2000/svg">
<path d="M866.83 1699.83C778.079 1699.83 690.197 1682.35 608.201 1648.39C526.206 1614.42 451.703 1564.64 388.946 1501.88C326.189 1439.13 276.408 1364.62 242.444 1282.63C208.481 1200.63 191 1112.75 191 1024C191 935.249 208.481 847.367 242.445 765.371C276.408 683.376 326.189 608.873 388.946 546.116C451.703 483.359 526.206 433.578 608.201 399.614C690.197 365.651 778.079 348.17 866.83 348.17V753.668C831.33 753.668 796.177 760.66 763.379 774.246C730.58 787.831 700.779 807.744 675.677 832.846C650.574 857.949 630.661 887.75 617.076 920.548C603.49 953.347 596.498 988.5 596.498 1024C596.498 1059.5 603.49 1094.65 617.076 1127.45C630.661 1160.25 650.574 1190.05 675.677 1215.15C700.779 1240.26 730.58 1260.17 763.379 1273.75C796.177 1287.34 831.33 1294.33 866.83 1294.33L866.83 1699.83Z" fill="#F3B235"/>
<path fill-rule="evenodd" clip-rule="evenodd" d="M1389.68 1527.38C1364.45 1537.83 1338.53 1546.34 1312.14 1552.88V1403.33C1319.75 1400.71 1327.29 1397.85 1334.74 1394.76C1383.43 1374.59 1427.67 1345.03 1464.94 1307.77C1502.2 1270.5 1531.76 1226.26 1551.93 1177.57C1572.1 1128.88 1582.48 1076.7 1582.48 1024C1582.48 971.3 1572.1 919.115 1551.93 870.427C1531.76 821.738 1502.2 777.498 1464.94 740.233C1427.67 702.968 1383.43 673.408 1334.74 653.241C1327.29 650.153 1319.75 647.295 1312.14 644.668V495.121C1338.53 501.655 1364.45 510.17 1389.68 520.619C1455.78 548.001 1515.85 588.135 1566.44 638.729C1617.04 689.324 1657.17 749.388 1684.55 815.493C1711.93 881.598 1726.03 952.449 1726.03 1024C1726.03 1095.55 1711.93 1166.4 1684.55 1232.51C1657.17 1298.61 1617.04 1358.68 1566.44 1409.27C1515.85 1459.87 1455.78 1500 1389.68 1527.38ZM1312.14 360.983C1355.76 369.599 1398.53 382.519 1439.8 399.614C1521.79 433.578 1596.3 483.359 1659.05 546.116C1721.81 608.873 1771.59 683.376 1805.56 765.371C1839.52 847.367 1857 935.249 1857 1024C1857 1112.75 1839.52 1200.63 1805.56 1282.63C1771.59 1364.62 1721.81 1439.13 1659.05 1501.88C1596.3 1564.64 1521.79 1614.42 1439.8 1648.39C1398.53 1665.48 1355.76 1678.4 1312.14 1687.02C1269.11 1695.52 1225.25 1699.83 1181.17 1699.83V1294.33C1216.67 1294.33 1251.82 1287.34 1284.62 1273.75C1317.42 1260.17 1347.22 1240.26 1372.32 1215.15C1397.43 1190.05 1417.34 1160.25 1430.92 1127.45C1444.51 1094.65 1451.5 1059.5 1451.5 1024C1451.5 988.5 1444.51 953.347 1430.92 920.548C1417.34 887.75 1397.43 857.949 1372.32 832.846C1347.22 807.744 1317.42 787.831 1284.62 774.246C1251.87 760.679 1216.77 753.687 1181.32 753.668C1181.27 753.668 1181.22 753.668 1181.17 753.668V348.17C1225.25 348.17 1269.11 352.482 1312.14 360.983Z" fill="#F3B235"/>
</svg>
