<svg width="2048" height="2048" viewBox="0 0 2048 2048" fill="none" xmlns="http://www.w3.org/2000/svg">
<path fill-rule="evenodd" clip-rule="evenodd" d="M835.449 297.171C573.469 365.437 367.205 571.668 298.928 833.606H407.454C470.12 629.436 631.246 468.336 835.449 405.68V297.171ZM835.449 1641.13C629.666 1577.99 467.629 1414.87 406.017 1208.45H297.707C364.718 1472.65 571.888 1680.96 835.449 1749.64V1641.13ZM1210.36 1750.86V1642.57C1418.39 1580.49 1582.45 1416.46 1644.54 1208.45H1752.85C1685.43 1474.23 1476.18 1683.46 1210.36 1750.86ZM1210.36 404.243V295.951C1474.59 362.951 1682.94 570.088 1751.63 833.606H1643.1C1579.95 627.856 1416.81 465.846 1210.36 404.243Z" fill="#F3B235"/>
<path d="M1575.78 832.414H1819L1697.39 954.005L1575.78 832.414Z" fill="#F3B235"/>
<path d="M1213.33 1573.82V1817L1091.72 1695.41L1213.33 1573.82Z" fill="#F3B235"/>
<path d="M471.221 1211.42H228L349.61 1089.83L471.221 1211.42Z" fill="#F3B235"/>
<path d="M833.673 474.182V231L955.283 352.591L833.673 474.182Z" fill="#F3B235"/>
</svg>
