<svg width="2048" height="2048" viewBox="0 0 2048 2048" fill="none" xmlns="http://www.w3.org/2000/svg">
<path fill-rule="evenodd" clip-rule="evenodd" d="M1686 450.38V362H1584.46L1516.16 430.299H1617.7V518.679L1686 450.38ZM517.679 1618.7H429.299V1517.16L361 1585.46V1687H449.38L517.679 1618.7ZM545.97 1687L614.269 1618.7H1426.15L1494.45 1687H545.97ZM361 1488.87L429.299 1420.57V621.851L361 553.552V1488.87ZM1419.57 430.299L1487.87 362H552.549L620.848 430.299H1419.57ZM1617.7 615.269L1686 546.97V1495.45L1617.7 1427.15V615.269ZM455.959 362L524.258 430.299H429.299V525.262L361 456.963V362H455.959ZM1617.7 1618.7V1523.74L1686 1592.04V1687H1591.04L1522.74 1618.7H1617.7Z" fill="#F3B235"/>
</svg>
