<svg width="2048" height="2048" viewBox="0 0 2048 2048" fill="none" xmlns="http://www.w3.org/2000/svg">
<path fill-rule="evenodd" clip-rule="evenodd" d="M1023.5 1773.3C1437.05 1773.3 1772.3 1438.05 1772.3 1024.5C1772.3 610.949 1437.05 275.699 1023.5 275.699C609.949 275.699 274.699 610.949 274.699 1024.5C274.699 1438.05 609.949 1773.3 1023.5 1773.3ZM1023.5 1846C1477.2 1846 1845 1478.2 1845 1024.5C1845 570.798 1477.2 203 1023.5 203C569.798 203 202 570.798 202 1024.5C202 1478.2 569.798 1846 1023.5 1846Z" fill="#F3B235"/>
<path fill-rule="evenodd" clip-rule="evenodd" d="M1677.88 1080.24H369.113C397.403 1416.84 679.576 1681.22 1023.5 1681.22C1367.42 1681.22 1649.59 1416.84 1677.88 1080.24ZM1677.45 963.917H369.539C400.115 629.622 681.228 367.785 1023.5 367.785C1365.77 367.785 1646.88 629.622 1677.45 963.917Z" fill="#F3B235"/>
</svg>
