<svg width="2048" height="2048" viewBox="0 0 2048 2048" fill="none" xmlns="http://www.w3.org/2000/svg">
<path fill-rule="evenodd" clip-rule="evenodd" d="M1848.49 1088.95L1763.19 1082.32C1764.69 1063.09 1765.45 1043.64 1765.45 1024C1765.45 1004.36 1764.69 984.905 1763.19 965.677L1848.49 959.05C1850.15 980.481 1851 1002.14 1851 1024C1851 1045.86 1850.15 1067.52 1848.49 1088.95ZM1828.32 830.857L1745.12 850.764C1736.01 812.685 1723.96 775.749 1709.22 740.205L1788.25 707.434C1804.7 747.111 1818.15 788.347 1828.32 830.857ZM1729.24 591.843L1656.34 636.612C1635.96 603.432 1613.04 571.967 1587.84 542.492L1652.87 486.9C1680.96 519.755 1706.51 554.836 1729.24 591.843ZM1561.1 395.129L1505.51 460.157C1476.03 434.96 1444.57 412.039 1411.39 391.663L1456.16 318.76C1493.16 341.486 1528.25 367.043 1561.1 395.129ZM1340.57 259.753L1307.79 338.78C1272.25 324.04 1235.32 311.99 1197.24 302.879L1217.14 219.675C1259.65 229.846 1300.89 243.3 1340.57 259.753ZM1088.95 199.513L1082.32 284.808C1063.09 283.314 1043.64 282.552 1024 282.552C1004.36 282.552 984.905 283.314 965.677 284.808L959.05 199.513C980.481 197.848 1002.14 197 1024 197C1045.86 197 1067.52 197.848 1088.95 199.513ZM830.857 219.675L850.764 302.879C812.685 311.99 775.749 324.04 740.205 338.78L707.434 259.753C747.111 243.3 788.347 229.846 830.857 219.675ZM591.843 318.76L636.612 391.663C603.432 412.038 571.967 434.959 542.492 460.157L486.9 395.129C519.755 367.042 554.836 341.486 591.843 318.76ZM395.129 486.9L460.157 542.492C434.96 571.967 412.039 603.432 391.663 636.612L318.76 591.843C341.486 554.836 367.043 519.754 395.129 486.9ZM259.753 707.434L338.78 740.205C324.04 775.749 311.99 812.685 302.879 850.764L219.675 830.857C229.846 788.347 243.3 747.111 259.753 707.434ZM199.513 959.05C197.848 980.481 197 1002.14 197 1024C197 1045.86 197.848 1067.52 199.513 1088.95L284.808 1082.32C283.314 1063.09 282.552 1043.64 282.552 1024C282.552 1004.36 283.314 984.905 284.808 965.677L199.513 959.05ZM219.675 1217.14L302.879 1197.24C311.99 1235.32 324.04 1272.25 338.78 1307.79L259.753 1340.57C243.3 1300.89 229.846 1259.65 219.675 1217.14ZM318.76 1456.16L391.663 1411.39C412.038 1444.57 434.959 1476.03 460.157 1505.51L395.129 1561.1C367.042 1528.25 341.486 1493.16 318.76 1456.16ZM486.9 1652.87L542.492 1587.84C571.967 1613.04 603.432 1635.96 636.612 1656.34L591.843 1729.24C554.836 1706.51 519.755 1680.96 486.9 1652.87ZM707.434 1788.25L740.205 1709.22C775.749 1723.96 812.685 1736.01 850.764 1745.12L830.857 1828.32C788.347 1818.15 747.111 1804.7 707.434 1788.25ZM959.05 1848.49L965.677 1763.19C984.905 1764.69 1004.36 1765.45 1024 1765.45C1043.64 1765.45 1063.09 1764.69 1082.32 1763.19L1088.95 1848.49C1067.52 1850.15 1045.86 1851 1024 1851C1002.14 1851 980.481 1850.15 959.05 1848.49ZM1217.14 1828.32L1197.24 1745.12C1235.32 1736.01 1272.25 1723.96 1307.79 1709.22L1340.57 1788.25C1300.89 1804.7 1259.65 1818.15 1217.14 1828.32ZM1456.16 1729.24L1411.39 1656.34C1444.57 1635.96 1476.03 1613.04 1505.51 1587.84L1561.1 1652.87C1528.25 1680.96 1493.16 1706.51 1456.16 1729.24ZM1652.87 1561.1L1587.84 1505.51C1613.04 1476.03 1635.96 1444.57 1656.34 1411.39L1729.24 1456.16C1706.51 1493.16 1680.96 1528.25 1652.87 1561.1ZM1788.25 1340.57L1709.22 1307.79C1723.96 1272.25 1736.01 1235.32 1745.12 1197.24L1828.32 1217.14C1818.15 1259.65 1804.7 1300.89 1788.25 1340.57Z" fill="#F3B235"/>
<path fill-rule="evenodd" clip-rule="evenodd" d="M1024 1628.57C1357.89 1628.57 1628.57 1357.89 1628.57 1024C1628.57 690.108 1357.89 419.434 1024 419.434C690.108 419.434 419.434 690.108 419.434 1024C419.434 1357.89 690.108 1628.57 1024 1628.57ZM1024 1771.15C1436.64 1771.15 1771.15 1436.64 1771.15 1024C1771.15 611.359 1436.64 276.848 1024 276.848C611.359 276.848 276.848 611.359 276.848 1024C276.848 1436.64 611.359 1771.15 1024 1771.15Z" fill="#F3B235"/>
</svg>
