<svg width="2048" height="2048" viewBox="0 0 2048 2048" fill="none" xmlns="http://www.w3.org/2000/svg">
<path fill-rule="evenodd" clip-rule="evenodd" d="M950.263 1141.39V522.014H1097.17V1141.69L1621.09 1495.52L1538.87 1617.26L1023.44 1269.16L508.178 1612.42L426.73 1490.16L950.263 1141.39Z" fill="#F3B235"/>
<path fill-rule="evenodd" clip-rule="evenodd" d="M416.509 1650.78C448.938 1650.78 475.226 1624.49 475.226 1592.06C475.226 1559.63 448.938 1533.34 416.509 1533.34C384.081 1533.34 357.792 1559.63 357.792 1592.06C357.792 1624.49 384.081 1650.78 416.509 1650.78ZM416.509 1778.14C519.278 1778.14 602.589 1694.83 602.589 1592.06C602.589 1489.29 519.278 1405.98 416.509 1405.98C313.74 1405.98 230.43 1489.29 230.43 1592.06C230.43 1694.83 313.74 1778.14 416.509 1778.14Z" fill="#F3B235"/>
<path fill-rule="evenodd" clip-rule="evenodd" d="M1630.92 1650.78C1663.35 1650.78 1689.64 1624.49 1689.64 1592.06C1689.64 1559.63 1663.35 1533.34 1630.92 1533.34C1598.49 1533.34 1572.2 1559.63 1572.2 1592.06C1572.2 1624.49 1598.49 1650.78 1630.92 1650.78ZM1630.92 1778.14C1733.69 1778.14 1817 1694.83 1817 1592.06C1817 1489.29 1733.69 1405.98 1630.92 1405.98C1528.15 1405.98 1444.84 1489.29 1444.84 1592.06C1444.84 1694.83 1528.15 1778.14 1630.92 1778.14Z" fill="#F3B235"/>
<path fill-rule="evenodd" clip-rule="evenodd" d="M1023.72 514.707C1056.14 514.707 1082.43 488.419 1082.43 455.99C1082.43 423.562 1056.14 397.273 1023.72 397.273C991.287 397.273 964.999 423.562 964.999 455.99C964.999 488.419 991.287 514.707 1023.72 514.707ZM1023.72 642.07C1126.48 642.07 1209.8 558.759 1209.8 455.99C1209.8 353.221 1126.48 269.911 1023.72 269.911C920.947 269.911 837.636 353.221 837.636 455.99C837.636 558.759 920.947 642.07 1023.72 642.07Z" fill="#F3B235"/>
</svg>
