<svg width="2048" height="2048" viewBox="0 0 2048 2048" fill="none" xmlns="http://www.w3.org/2000/svg">
<path d="M1281 593.083L1453.9 765.976L1109.94 1109.94L937.043 937.042L1281 593.083Z" fill="#F3B235"/>
<path d="M1633.44 240.646L1601.79 209L1372.38 250.905L1264.61 358.684L1243.54 664.662L1382.34 803.464L1688.32 782.395L1796.1 674.616L1838 445.207L1806.33 413.539L1631.93 587.941C1584.44 635.432 1507.24 635.227 1459.49 587.484C1411.75 539.741 1411.55 462.538 1459.04 415.047L1633.44 240.646Z" fill="#F3B235"/>
<path d="M766 1453.92L593.106 1281.02L937.065 937.064L1109.96 1109.96L766 1453.92Z" fill="#F3B235"/>
<path d="M413.563 1806.35L445.208 1838L674.617 1796.09L782.397 1688.31L803.465 1382.34L664.663 1243.54L358.686 1264.6L250.906 1372.38L209.002 1601.79L240.669 1633.46L415.071 1459.06C462.562 1411.57 539.764 1411.77 587.508 1459.51C635.251 1507.26 635.455 1584.46 587.964 1631.95L413.563 1806.35Z" fill="#F3B235"/>
<path d="M593.082 765.999L765.976 593.105L1109.93 937.065L937.042 1109.96L593.082 765.999Z" fill="#F3B235"/>
<path d="M240.646 413.562L209 445.208L250.905 674.616L358.684 782.396L664.661 803.465L803.463 664.663L782.395 358.686L674.615 250.906L445.207 209.001L413.539 240.668L587.941 415.07C635.432 462.561 635.227 539.764 587.484 587.507C539.741 635.25 462.538 635.455 415.047 587.964L240.646 413.562Z" fill="#F3B235"/>
<path d="M1453.92 1281L1281.02 1453.9L937.063 1109.94L1109.96 937.043L1453.92 1281Z" fill="#F3B235"/>
<path d="M1806.35 1633.44L1838 1601.79L1796.09 1372.38L1688.31 1264.6L1382.34 1243.54L1243.53 1382.34L1264.6 1688.32L1372.38 1796.1L1601.79 1838L1633.46 1806.33L1459.06 1631.93C1411.57 1584.44 1411.77 1507.24 1459.51 1459.49C1507.26 1411.75 1584.46 1411.55 1631.95 1459.04L1806.35 1633.44Z" fill="#F3B235"/>
</svg>
