<svg width="2048" height="2048" viewBox="0 0 2048 2048" fill="none" xmlns="http://www.w3.org/2000/svg">
<path fill-rule="evenodd" clip-rule="evenodd" d="M933.355 302.86L302.862 933.353C252.862 983.353 252.862 1064.42 302.862 1114.42L933.355 1744.91C983.355 1794.91 1064.42 1794.91 1114.42 1744.91L1744.91 1114.42C1794.91 1064.42 1794.91 983.353 1744.91 933.353L1114.42 302.86C1064.42 252.86 983.355 252.86 933.355 302.86ZM254.362 884.854C177.577 961.639 177.577 1086.13 254.362 1162.92L884.856 1793.41C961.641 1870.2 1086.13 1870.2 1162.92 1793.41L1793.41 1162.92C1870.2 1086.13 1870.2 961.639 1793.41 884.854L1162.92 254.36C1086.13 177.575 961.641 177.575 884.856 254.36L254.362 884.854Z" fill="#F3B235"/>
<path d="M464.525 868.686V1179.08L309.327 1023.88L464.525 868.686Z" fill="#F3B235"/>
<path d="M1583.25 1179.09V868.689L1738.45 1023.89L1583.25 1179.09Z" fill="#F3B235"/>
<path d="M542.234 790.977L713.49 619.722V1428.05L542.234 1256.79V790.977Z" fill="#F3B235"/>
<path d="M786.245 546.975L988.326 344.894V1702.88L786.245 1500.8V546.975Z" fill="#F3B235"/>
<path d="M1261.53 1500.8L1059.45 1702.88V344.892L1261.53 546.973V1500.8Z" fill="#F3B235"/>
<path d="M1505.54 1256.79L1334.29 1428.05V619.725L1505.54 790.98V1256.79Z" fill="#F3B235"/>
</svg>
