<svg width="2048" height="2048" viewBox="0 0 2048 2048" fill="none" xmlns="http://www.w3.org/2000/svg">
<path d="M300 1748.47V1531.66L516.806 1748.47H300Z" fill="#F3B235"/>
<path d="M1744.56 1748.47V1531.66L1527.76 1748.47H1744.56Z" fill="#F3B235"/>
<path d="M1744.56 299.031V515.838L1527.76 299.031H1744.56Z" fill="#F3B235"/>
<path d="M300 299.031V515.838L516.806 299.031H300Z" fill="#F3B235"/>
<path fill-rule="evenodd" clip-rule="evenodd" d="M1023.5 1648.59C1369.26 1648.59 1649.56 1368.29 1649.56 1022.53C1649.56 676.768 1369.26 396.472 1023.5 396.472C677.737 396.472 397.441 676.768 397.441 1022.53C397.441 1368.29 677.737 1648.59 1023.5 1648.59ZM1023.5 1746.03C1423.08 1746.03 1747 1422.11 1747 1022.53C1747 622.953 1423.08 299.031 1023.5 299.031C623.922 299.031 300 622.953 300 1022.53C300 1422.11 623.922 1746.03 1023.5 1746.03Z" fill="#F3B235"/>
<path fill-rule="evenodd" clip-rule="evenodd" d="M1023.5 1249.08C1148.62 1249.08 1250.05 1147.65 1250.05 1022.53C1250.05 897.411 1148.62 795.981 1023.5 795.981C898.38 795.981 796.95 897.411 796.95 1022.53C796.95 1147.65 898.38 1249.08 1023.5 1249.08ZM1023.5 1346.52C1202.44 1346.52 1347.49 1201.47 1347.49 1022.53C1347.49 843.596 1202.44 698.54 1023.5 698.54C844.564 698.54 699.508 843.596 699.508 1022.53C699.508 1201.47 844.564 1346.52 1023.5 1346.52Z" fill="#F3B235"/>
</svg>
