<svg width="2048" height="2048" viewBox="0 0 2048 2048" fill="none" xmlns="http://www.w3.org/2000/svg">
<path d="M1874 1023.5C1874 1493.22 1493.22 1874 1023.5 1874C553.783 1874 173.002 1493.22 173.002 1023.5C173.002 553.783 553.783 173.002 1023.5 173.002C1493.22 173.002 1874 553.783 1874 1023.5ZM359.466 1023.5C359.466 1390.24 656.764 1687.54 1023.5 1687.54C1390.24 1687.54 1687.53 1390.24 1687.53 1023.5C1687.53 656.765 1390.24 359.466 1023.5 359.466C656.764 359.466 359.466 656.765 359.466 1023.5Z" fill="#F3B235"/>
<path d="M1874 1023.5C1874 836.649 1812.47 654.998 1698.91 506.613L1484.62 670.605C1562.15 771.912 1604.16 895.931 1604.16 1023.5H1874Z" fill="#F3B235"/>
<path d="M1448.75 286.946C1286.93 193.521 1098.85 155.984 913.563 180.136L948.441 447.709C1074.94 431.219 1203.35 456.847 1313.83 520.632L1448.75 286.946Z" fill="#F3B235"/>
<path d="M598.251 286.947C436.433 380.373 309.885 524.488 238.159 697.024L487.323 800.605C536.292 682.809 622.691 584.417 733.169 520.632L598.251 286.947Z" fill="#F3B235"/>
<path d="M173 1023.5C173 1210.35 234.533 1392 348.091 1540.39L562.376 1376.4C484.846 1275.09 442.836 1151.07 442.836 1023.5H173Z" fill="#F3B235"/>
<path d="M595.214 1758.29C695.729 1816.88 807.194 1854.22 922.717 1868.01C1038.24 1881.79 1155.36 1871.73 1266.84 1838.45L1189.64 1579.89C1113.53 1602.62 1033.56 1609.48 954.693 1600.07C875.822 1590.66 799.721 1565.16 731.097 1525.17L595.214 1758.29Z" fill="#F3B235"/>
<path d="M1548.51 1692.61C1670.51 1596.88 1764.02 1469.62 1818.92 1324.59L1566.56 1229.07C1529.08 1328.08 1465.24 1414.97 1381.94 1480.32L1548.51 1692.61Z" fill="#F3B235"/>
<path d="M1343.23 1023.5C1343.23 1200.08 1200.08 1343.23 1023.5 1343.23C846.917 1343.23 703.769 1200.08 703.769 1023.5C703.769 846.918 846.917 703.769 1023.5 703.769C1200.08 703.769 1343.23 846.918 1343.23 1023.5Z" fill="#F3B235"/>
</svg>
