<svg width="2048" height="2048" viewBox="0 0 2048 2048" fill="none" xmlns="http://www.w3.org/2000/svg">
<path fill-rule="evenodd" clip-rule="evenodd" d="M196 479.986C196 325.907 320.969 201 475.127 201H914.813V324.445H475.127C389.181 324.445 319.507 394.084 319.507 479.986V888.107H196V479.986ZM196 1165.34V1567.01C196 1721.09 320.969 1846 475.127 1846H914.813V1722.55H475.127C389.181 1722.55 319.507 1652.92 319.507 1567.01V1165.34H196ZM531.94 1165.34V1300.19C531.94 1391.55 606.037 1465.61 697.44 1465.61H914.813V1342.17H697.44C674.248 1342.17 655.448 1323.37 655.448 1300.19V1165.34H531.94ZM1391.55 1165.34V1300.19C1391.55 1323.37 1372.75 1342.17 1349.56 1342.17H1132.19V1465.61H1349.56C1440.96 1465.61 1515.06 1391.55 1515.06 1300.19V1165.34H1391.55ZM1515.06 888.107H1391.55V746.805C1391.55 723.625 1372.75 704.833 1349.56 704.833H1132.19V581.388H1349.56C1440.96 581.388 1515.06 655.448 1515.06 746.805V888.107ZM1727.49 1165.34V1567.01C1727.49 1652.92 1657.82 1722.55 1571.87 1722.55H1132.19V1846H1571.87C1726.03 1846 1851 1721.09 1851 1567.01V1165.34H1727.49ZM1851 888.107H1727.49V479.986C1727.49 394.084 1657.82 324.445 1571.87 324.445H1132.19V201H1571.87C1726.03 201 1851 325.907 1851 479.986V888.107ZM655.448 888.107H531.94V746.805C531.94 655.448 606.037 581.388 697.44 581.388H914.813V704.833H697.44C674.248 704.833 655.448 723.625 655.448 746.805V888.107Z" fill="#F3B235"/>
</svg>
