<svg width="2048" height="2048" viewBox="0 0 2048 2048" fill="none" xmlns="http://www.w3.org/2000/svg">
<path d="M85.0238 918.574L85.0238 1132L49 1132L49 918.574L85.0238 918.574Z" fill="#F3B235"/>
<path d="M154.028 916.89V1130.32L118.004 1130.32V916.89L154.028 916.89Z" fill="#F3B235"/>
<path d="M329.113 918.574V1132L187.038 1132V918.574L329.113 918.574Z" fill="#F3B235"/>
<path d="M500.125 916.89V1130.32L357.713 1130.32V916.89L500.125 916.89Z" fill="#F3B235"/>
<path d="M670.828 918.574V1132L528.753 1132V918.574L670.828 918.574Z" fill="#F3B235"/>
<path d="M841.857 916.89V1130.32L699.781 1130.32V916.89L841.857 916.89Z" fill="#F3B235"/>
<path d="M1413.18 918.574V1132L1377.16 1132V918.574L1413.18 918.574Z" fill="#F3B235"/>
<path d="M1482.22 916.89V1130.32L1446.19 1130.32V916.89L1482.22 916.89Z" fill="#F3B235"/>
<path d="M1657.28 918.574V1132L1515.21 1132V918.574L1657.28 918.574Z" fill="#F3B235"/>
<path d="M1828.31 916.89V1130.32L1685.9 1130.32V916.89L1828.31 916.89Z" fill="#F3B235"/>
<path d="M1999 918.574V1132L1856.92 1132V918.574L1999 918.574Z" fill="#F3B235"/>
<path d="M1081.83 1094.07L1021.8 1034.04V917H982.54V1034.04L885 1131.58H940.526L1002.17 1069.93L1063.82 1131.58H1109.46V1094.07H1081.83Z" fill="#F3B235"/>
<path d="M1037.47 953V917L1073.47 953V989L1037.47 953Z" fill="#F3B235"/>
<path d="M966.473 1024.5V989L930.473 1024.5V1060L966.473 1024.5Z" fill="#F3B235"/>
<path d="M1315.25 1096V1060L1279.25 1096V1132L1315.25 1096Z" fill="#F3B235"/>
<path d="M1257.1 1073.93L1328.63 1002.41L1300.87 974.645L1243.22 1032.29L1203.46 992.526L1175.7 1020.29L1215.47 1060.06L1144 1131.58H1199.5L1257.1 1073.93Z" fill="#F3B235"/>
<path d="M1314.54 953H1260.97L1225.25 917H1350.25L1314.54 953Z" fill="#F3B235"/>
</svg>
