<svg width="2048" height="2048" viewBox="0 0 2048 2048" fill="none" xmlns="http://www.w3.org/2000/svg">
<path d="M701.817 1023.5C701.817 1065.74 710.137 1107.57 726.303 1146.6C742.469 1185.63 766.164 1221.09 796.036 1250.96C825.907 1280.84 861.369 1304.53 900.397 1320.7C939.425 1336.86 981.256 1345.18 1023.5 1345.18V1216.51C998.153 1216.51 973.055 1211.52 949.638 1201.82C926.221 1192.12 904.944 1177.9 887.021 1159.98C869.099 1142.06 854.882 1120.78 845.182 1097.36C835.482 1073.94 830.49 1048.85 830.49 1023.5H701.817Z" fill="#F3B235"/>
<path d="M1345.18 1023.5C1345.18 981.256 1336.86 939.425 1320.7 900.397C1304.53 861.369 1280.84 825.907 1250.96 796.036C1221.09 766.164 1185.63 742.469 1146.6 726.303C1107.57 710.137 1065.74 701.817 1023.5 701.817V830.49C1048.85 830.49 1073.94 835.482 1097.36 845.182C1120.78 854.882 1142.06 869.099 1159.98 887.021C1177.9 904.944 1192.12 926.221 1201.82 949.638C1211.52 973.055 1216.51 998.153 1216.51 1023.5H1345.18Z" fill="#F3B235"/>
<path d="M1893 1023.5C1893 1195.47 1842 1363.58 1746.46 1506.57C1650.92 1649.56 1515.12 1761 1356.24 1826.81C1197.36 1892.62 1022.54 1909.84 853.869 1876.29C685.203 1842.74 530.273 1759.93 408.671 1638.33C287.069 1516.73 204.257 1361.8 170.708 1193.13C137.158 1024.46 154.377 849.637 220.187 690.757C285.997 531.876 397.443 396.079 540.432 300.537C683.42 204.995 851.529 154 1023.5 154V414.85C903.121 414.85 785.444 450.547 685.352 517.426C585.26 584.305 507.248 679.363 461.181 790.58C415.114 901.796 403.061 1024.17 426.545 1142.24C450.03 1260.31 507.999 1368.76 593.12 1453.88C678.241 1539 786.692 1596.97 904.758 1620.45C1022.83 1643.94 1145.2 1631.89 1256.42 1585.82C1367.64 1539.75 1462.69 1461.74 1529.57 1361.65C1596.45 1261.56 1632.15 1143.88 1632.15 1023.5H1893Z" fill="#F3B235"/>
<path d="M408.798 1023.5C408.798 901.923 444.85 783.077 512.394 681.99C579.938 580.903 675.942 502.115 788.264 455.59C900.586 409.065 1024.18 396.891 1143.42 420.61C1262.66 444.328 1372.19 502.873 1458.16 588.84C1544.13 674.808 1602.67 784.337 1626.39 903.578C1650.11 1022.82 1637.93 1146.41 1591.41 1258.74C1544.88 1371.06 1466.1 1467.06 1365.01 1534.61C1263.92 1602.15 1145.08 1638.2 1023.5 1638.2V1453.79C1108.6 1453.79 1191.8 1428.55 1262.56 1381.27C1333.32 1333.99 1388.47 1266.79 1421.04 1188.17C1453.6 1109.54 1462.13 1023.02 1445.52 939.554C1428.92 856.086 1387.94 779.415 1327.76 719.238C1267.58 659.061 1190.91 618.08 1107.45 601.477C1023.98 584.874 937.46 593.395 858.834 625.963C780.209 658.531 713.007 713.682 665.726 784.443C618.445 855.204 593.208 938.396 593.208 1023.5L408.798 1023.5Z" fill="#F3B235"/>
</svg>
