<svg width="2048" height="2048" viewBox="0 0 2048 2048" fill="none" xmlns="http://www.w3.org/2000/svg">
<path d="M1024 1072.82H1691L1024 1919H357L1024 1072.82Z" fill="#F3B235"/>
<path d="M583.341 416.146L498.164 308.087L712.801 129H927.486L583.341 416.146Z" fill="#F3B235"/>
<path d="M726.688 598.001L641.511 489.942L1043.88 154.218L1129.05 262.276L726.688 598.001Z" fill="#F3B235"/>
<path d="M861.724 769.314L776.548 661.255L1178.91 325.53L1264.09 433.589L861.724 769.314Z" fill="#F3B235"/>
<path d="M1005.07 951.169L919.894 843.11L1322.26 507.386L1407.44 615.444L1005.07 951.169Z" fill="#F3B235"/>
<path d="M1337.59 975.183H1122.9L1465.61 689.241L1550.78 797.3L1337.59 975.183Z" fill="#F3B235"/>
<path d="M1608.95 871.096L1691 975.183H1484.21L1608.95 871.096Z" fill="#F3B235"/>
<path d="M566.186 129L439.995 234.29L357 129H566.186Z" fill="#F3B235"/>
</svg>
