<svg width="2048" height="2048" viewBox="0 0 2048 2048" fill="none" xmlns="http://www.w3.org/2000/svg">
<path fill-rule="evenodd" clip-rule="evenodd" d="M1788.25 1340.57L1709.22 1307.79C1745.42 1220.49 1765.45 1124.69 1765.45 1024C1765.45 923.308 1745.42 827.509 1709.22 740.205L1788.25 707.434C1828.68 804.944 1851 911.866 1851 1024C1851 1136.13 1828.68 1243.06 1788.25 1340.57ZM1340.57 259.753L1307.79 338.78C1220.49 302.576 1124.69 282.552 1024 282.552C923.308 282.552 827.509 302.576 740.205 338.78L707.434 259.753C804.944 219.318 911.866 197 1024 197C1136.13 197 1243.06 219.318 1340.57 259.753ZM259.753 707.434C219.318 804.944 197 911.866 197 1024C197 1136.13 219.318 1243.06 259.753 1340.57L338.78 1307.79C302.576 1220.49 282.552 1124.69 282.552 1024C282.552 923.308 302.576 827.509 338.78 740.205L259.753 707.434ZM707.434 1788.25L740.205 1709.22C827.509 1745.42 923.308 1765.45 1024 1765.45C1124.69 1765.45 1220.49 1745.42 1307.79 1709.22L1340.57 1788.25C1243.06 1828.68 1136.13 1851 1024 1851C911.866 1851 804.944 1828.68 707.434 1788.25Z" fill="#F3B235"/>
<path fill-rule="evenodd" clip-rule="evenodd" d="M1024 1628.57C1357.89 1628.57 1628.57 1357.89 1628.57 1024C1628.57 690.108 1357.89 419.434 1024 419.434C690.108 419.434 419.434 690.108 419.434 1024C419.434 1357.89 690.108 1628.57 1024 1628.57ZM1024 1771.15C1436.64 1771.15 1771.15 1436.64 1771.15 1024C1771.15 611.359 1436.64 276.848 1024 276.848C611.359 276.848 276.848 611.359 276.848 1024C276.848 1436.64 611.359 1771.15 1024 1771.15Z" fill="#F3B235"/>
</svg>
