<svg width="2048" height="2048" viewBox="0 0 2048 2048" fill="none" xmlns="http://www.w3.org/2000/svg">
<path fill-rule="evenodd" clip-rule="evenodd" d="M283.176 654.391V1391.39H410.605V654.391H283.176ZM1637.09 510.747V507.449C1637.09 453.963 1593.73 410.603 1540.24 410.603L507.451 410.603C453.965 410.603 410.605 453.963 410.605 507.449L410.605 510.747H283.176L283.176 507.449C283.176 383.585 383.587 283.174 507.451 283.174L1540.24 283.174C1664.11 283.174 1764.52 383.585 1764.52 507.449V510.747H1637.09ZM1637.09 654.391L1637.09 1391.39H1764.52V654.391H1637.09ZM283.176 1535.04H410.605L410.605 1540.24C410.605 1593.73 453.965 1637.09 507.451 1637.09L1540.24 1637.09C1593.73 1637.09 1637.09 1593.73 1637.09 1540.24V1535.04H1764.52V1540.24C1764.52 1664.11 1664.11 1764.52 1540.24 1764.52L507.451 1764.52C383.587 1764.52 283.176 1664.11 283.176 1540.24L283.176 1535.04Z" fill="#F3B235"/>
</svg>
