<svg width="2048" height="2048" viewBox="0 0 2048 2048" fill="none" xmlns="http://www.w3.org/2000/svg">
<path d="M871.642 291.885C876.146 287.284 882.312 284.691 888.75 284.691H973.255C986.478 284.691 997.197 295.411 997.197 308.633V1740.37C997.197 1753.59 986.478 1764.31 973.255 1764.31H888.75C882.312 1764.31 876.145 1761.72 871.642 1757.12L170.833 1041.25C161.722 1031.94 161.722 1017.06 170.833 1007.75L871.642 291.885Z" fill="#F3B235"/>
<path d="M1088.18 308.633C1088.18 295.411 1098.9 284.691 1112.12 284.691H1303.65C1316.88 284.691 1327.6 295.411 1327.6 308.633V1740.37C1327.6 1753.59 1316.88 1764.31 1303.66 1764.31H1112.12C1098.9 1764.31 1088.18 1753.59 1088.18 1740.37V308.633Z" fill="#F3B235"/>
<path d="M1418.58 308.633C1418.58 295.411 1429.3 284.691 1442.52 284.691H1634.06C1647.28 284.691 1658 295.411 1658 308.633V1740.37C1658 1753.59 1647.28 1764.31 1634.06 1764.31H1442.52C1429.3 1764.31 1418.58 1753.59 1418.58 1740.37V308.633Z" fill="#F3B235"/>
</svg>
