<svg width="2048" height="2048" viewBox="0 0 2048 2048" fill="none" xmlns="http://www.w3.org/2000/svg">
<path d="M591.749 383.878L357 290.6L375.979 538.274L489.05 568.572C612.548 601.663 685.837 728.603 652.746 852.101C645.333 879.767 632.486 904.526 615.661 925.538C545.366 1013.33 419.824 1110.46 428.417 1222.59C439.046 1361.3 515.694 1486.46 634.424 1558.96L954.804 1754.61L851.346 694.17C837.283 550.026 726.342 437.359 591.749 383.878Z" fill="#F3B235"/>
<path d="M1456.25 383.878C1319.27 438.306 1206.03 552.759 1191.72 699.458L1088.5 1757.48L1413.58 1558.96C1532.31 1486.46 1608.95 1361.3 1619.58 1222.59C1628.16 1110.73 1502.14 1013.83 1431.27 926.854C1413.92 905.563 1400.69 880.347 1393.12 852.101C1360.03 728.603 1433.32 601.663 1556.82 568.572L1672.07 537.691L1691 290.6L1456.25 383.878Z" fill="#F3B235"/>
</svg>
