<svg width="2048" height="2048" viewBox="0 0 2048 2048" fill="none" xmlns="http://www.w3.org/2000/svg">
<path d="M1389.52 406H1515.64L1431.56 547.279H1591.49L1675.57 406H1757.1C1812.83 406 1858 451.154 1858 506.855V628.393H189V506.855C189 451.154 234.173 406 289.897 406H371.426L287.346 547.279H447.278L531.359 406H657.48L573.399 547.279H733.332L817.413 406H943.534L859.453 547.279H1019.39L1103.47 406H1229.59L1145.51 547.279H1305.44L1389.52 406Z" fill="#F3B235"/>
<path d="M763.582 1064.45L742.192 921.637L720.802 1064.45H763.582Z" fill="#F3B235"/>
<path d="M1288.06 908.728C1273.93 908.728 1265.05 916.393 1265.05 936.564V1089.06C1265.05 1109.23 1273.93 1116.89 1288.06 1116.89C1302.18 1116.89 1311.06 1109.23 1311.06 1089.06V936.564C1311.06 916.393 1302.18 908.728 1288.06 908.728Z" fill="#F3B235"/>
<path fill-rule="evenodd" clip-rule="evenodd" d="M189 699.832H1858V1296.56H189V699.832ZM609.516 1089.06V1048.71H651.489V1086.23C651.489 1131.42 628.888 1157.23 585.301 1157.23C541.713 1157.23 519.113 1131.42 519.113 1086.23V939.388C519.113 894.205 541.713 868.386 585.301 868.386C628.888 868.386 651.489 894.205 651.489 939.388V966.82H609.516V936.564C609.516 916.393 600.637 908.728 586.512 908.728C572.386 908.728 563.507 916.393 563.507 936.564V1089.06C563.507 1109.23 572.386 1116.49 586.512 1116.49C600.637 1116.49 609.516 1109.23 609.516 1089.06ZM711.923 871.613H776.901L822.102 1154.01H777.304L769.636 1102.77H715.152L707.484 1154.01H666.721L711.923 871.613ZM840.759 1086.64V871.613H885.153V1089.46C885.153 1109.63 894.032 1116.89 908.158 1116.89C922.283 1116.89 931.162 1109.63 931.162 1089.46V871.613H973.135V1086.64C973.135 1131.82 950.534 1157.64 906.947 1157.64C863.36 1157.64 840.759 1131.82 840.759 1086.64ZM1037.08 911.955H990.666V871.613H1127.89V911.955H1081.47V1154.01H1037.08V911.955ZM1191.83 1154.01H1147.44V871.613H1191.83V1154.01ZM1288.06 1157.23C1244.47 1157.23 1220.66 1131.42 1220.66 1086.23V939.388C1220.66 894.205 1244.47 868.386 1288.06 868.386C1331.65 868.386 1355.46 894.205 1355.46 939.388V1086.23C1355.46 1131.42 1331.65 1157.23 1288.06 1157.23ZM1524.76 1154.01H1479.15L1423.86 949.473V1154.01H1383.9V871.613H1439.6L1485.2 1040.65V871.613H1524.76V1154.01Z" fill="#F3B235"/>
<path d="M189 1368V1541.15C189 1596.85 234.173 1642 289.897 1642H340.384L455.507 1448.56H615.439L500.317 1642H626.438L741.561 1448.56H901.493L786.37 1642H912.491L1027.61 1448.56H1187.55L1072.42 1642H1198.54L1313.67 1448.56H1473.6L1358.48 1642H1484.6L1599.72 1448.56H1759.65L1644.53 1642H1757.1C1812.83 1642 1858 1596.85 1858 1541.15V1368H189Z" fill="#F3B235"/>
</svg>
