<svg width="2048" height="2048" viewBox="0 0 2048 2048" fill="none" xmlns="http://www.w3.org/2000/svg">
<path d="M1684.77 642.505C1617.8 526.515 1521.49 430.196 1405.5 363.229C1289.51 296.262 1157.93 261.006 1024 261.006C890.063 261.006 758.489 296.262 642.498 363.229C526.508 430.196 430.189 526.515 363.222 642.505C296.255 758.495 261 890.069 261 1024C261 1157.94 296.255 1289.51 363.222 1405.5C430.189 1521.49 526.508 1617.81 642.499 1684.78C758.489 1751.74 890.063 1787 1024 1787L1024 1634.4C916.85 1634.4 811.59 1606.2 718.798 1552.62C626.006 1499.05 548.951 1421.99 495.377 1329.2C441.804 1236.41 413.599 1131.15 413.599 1024C413.599 916.856 441.804 811.597 495.377 718.805C548.951 626.012 626.006 548.957 718.798 495.384C811.59 441.81 916.85 413.606 1024 413.606C1131.14 413.606 1236.4 441.81 1329.2 495.384C1421.99 548.957 1499.04 626.012 1552.62 718.804L1684.77 642.505Z" fill="#F3B235"/>
<path d="M1024 1786.99C1174.91 1786.99 1322.43 1742.24 1447.9 1658.41C1573.38 1574.57 1671.17 1455.4 1728.92 1315.98C1786.67 1176.56 1801.78 1023.15 1772.34 875.144C1742.9 727.137 1670.23 591.184 1563.52 484.477C1456.82 377.77 1320.86 305.102 1172.86 275.661C1024.85 246.221 871.436 261.331 732.016 319.08C592.597 376.829 473.433 474.625 389.594 600.099C305.755 725.573 261.006 873.09 261.006 1024H337.305C337.305 888.181 377.579 755.415 453.035 642.489C528.49 529.562 635.738 441.546 761.215 389.572C886.693 337.597 1024.76 323.998 1157.97 350.495C1291.18 376.991 1413.53 442.393 1509.57 538.429C1605.61 634.465 1671.01 756.823 1697.51 890.029C1724 1023.24 1710.4 1161.31 1658.43 1286.78C1606.45 1412.26 1518.44 1519.51 1405.51 1594.96C1292.58 1670.42 1159.82 1710.69 1024 1710.69L1024 1786.99Z" fill="#F3B235"/>
<path d="M1405.5 1684.78C1521.49 1617.81 1617.81 1521.49 1684.77 1405.5C1751.74 1289.51 1787 1157.94 1787 1024L1634.4 1024C1634.4 1131.15 1606.19 1236.41 1552.62 1329.2C1499.05 1421.99 1421.99 1499.05 1329.2 1552.62L1405.5 1684.78Z" fill="#F3B235"/>
</svg>
