<svg width="2048" height="2048" viewBox="0 0 2048 2048" fill="none" xmlns="http://www.w3.org/2000/svg">
<path d="M516 853.204V656.565L1531 1671.56V1868.2L516 853.204Z" fill="#F3B235"/>
<path d="M1531 1322.22V1537.7L516 522.697V307.216L1531 1322.22Z" fill="#F3B235"/>
<path d="M755.97 178.954H521.606L1531 1188.35V953.983L755.97 178.954Z" fill="#F3B235"/>
<path d="M1531 820.115V572.588L1137.37 178.954H889.838L1531 820.115Z" fill="#F3B235"/>
<path d="M516 1308.05V1490.53L894.515 1869.05H1076.99L516 1308.05Z" fill="#F3B235"/>
<path d="M516 1174.19L1210.86 1869.05H1397.97L516 987.072V1174.19Z" fill="#F3B235"/>
<path d="M1531 178.954V438.721L1271.23 178.954H1531Z" fill="#F3B235"/>
<path d="M760.647 1869.05L516 1624.4V1869.05H760.647Z" fill="#F3B235"/>
</svg>
