<svg width="2048" height="2048" viewBox="0 0 2048 2048" fill="none" xmlns="http://www.w3.org/2000/svg">
<path d="M1023.5 1900C1138.47 1900 1252.32 1877.35 1358.54 1833.36C1464.76 1789.36 1561.27 1724.87 1642.57 1643.57C1723.87 1562.27 1788.36 1465.76 1832.36 1359.54C1876.35 1253.32 1899 1139.47 1899 1024.5H1405.12C1405.12 1074.62 1395.25 1124.24 1376.07 1170.54C1356.89 1216.84 1328.78 1258.91 1293.35 1294.35C1257.91 1329.78 1215.84 1357.89 1169.54 1377.07C1123.24 1396.25 1073.62 1406.12 1023.5 1406.12V1900Z" fill="#F3B235"/>
<path d="M1023.5 149C908.528 149 794.681 171.645 688.461 215.643C582.24 259.641 485.726 324.13 404.428 405.428C323.13 486.726 258.641 583.24 214.643 689.461C170.645 795.681 148 909.528 148 1024.5H641.879C641.879 974.385 651.75 924.76 670.928 878.46C690.106 832.16 718.216 790.09 753.653 754.653C789.09 719.216 831.16 691.106 877.46 671.928C923.76 652.75 973.385 642.879 1023.5 642.879V149Z" fill="#F3B235"/>
</svg>
